<?xml version="1.0" encoding="utf-8"?>
<!-- Generator: Adobe Illustrator 22.1.0, SVG Export Plug-In . SVG Version: 6.00 Build 0)  -->
<svg version="1.1" id="Layer_1" xmlns="http://www.w3.org/2000/svg" xmlns:xlink="http://www.w3.org/1999/xlink" x="0px" y="0px"
	 viewBox="0 0 195 45.5" enable-background="new 0 0 195 45.5" xml:space="preserve">
<path fill="#AFB241" stroke="#A9A595" stroke-width="0.5" stroke-miterlimit="10" d="M154.4,31.5h-0.8c-0.5,0-0.9,0.2-1.1,0.6
	c-0.1,0.1-0.1,0.2-0.1,0.3h-13.6c-0.3-0.2-0.7-0.5-1.1-0.7c-0.6-0.1-1.9-0.6-3-1.2c-0.3-1.1-0.7-1.9-1.2-2.4
	c0.1-0.5,0.4-0.9,0.7-1.2c-2-3.8-6,1.1-6,1.1l0,0c0,0,1.7,0.3,3,3.6H30.4c0,0-13.8,0.3-15.3,2.7c1.5,2.7,15.3,2.7,15.3,2.7h100.9
	c-1.4,3.2-3.1,3.2-3.1,3.2l0,0c0,0,4.2,5.6,6.2,1.2c-0.3-0.2-0.6-0.6-0.8-1c0.5-0.6,1-1.4,1.2-2.7c1-0.5,2.3-0.9,2.9-0.9
	c0.4-0.2,0.8-0.5,1.1-0.7h13.5c0.2,0.6,0.7,1,1.3,1h0.8c0.8,0,2.3-2.2,2.3-2.9C156.7,33.9,155.2,31.5,154.4,31.5z"/>
<g>
	<path fill="#AFB241" stroke="#A9A595" stroke-width="0.5" stroke-miterlimit="10" d="M8.6,16.7c0-2,0-3.6,0-4.9
		c0-1.3-0.1-2.2-0.1-3C8.3,8.2,8.2,7.7,8.1,7.4C8,7.2,7.9,7,7.8,7c0,0-0.1,0-0.3,0s-0.3,0-0.5,0c-0.2,0-0.3,0-0.5,0
		C6.4,7,6.3,7,6.3,7c0,0,0-0.1,0-0.3c0-0.1,0-0.2,0.1-0.3c0.1,0,0.3,0,0.5,0c0.3,0,0.6,0,1,0s0.7,0,1.1,0c0.4,0,0.8,0,1.1,0
		c0.3,0,0.6,0,0.8,0s0.3,0,0.3,0c0.1,0,0.2-0.1,0.5-0.2c0.3-0.1,0.6-0.2,1-0.4c0.4-0.1,0.8-0.2,1.3-0.4c0.5-0.1,1-0.2,1.6-0.2
		c2,0,3.7,0.4,4.8,1.3c1.2,0.9,1.7,2,1.7,3.6c0,1.3-0.3,2.4-0.8,3.4c-0.5,1-1.2,1.9-2,2.6s-1.8,1.3-2.8,1.6c-1,0.4-2.1,0.6-3.2,0.6
		c-0.3,0-0.7,0-1.1,0c-0.4,0-0.7-0.1-0.8-0.2c0,0.4,0,0.9,0,1.6c0,0.7,0,1.3,0,2c0,0.7,0,1.2,0.1,1.8c0,0.5,0.1,0.9,0.2,1
		c0,0.1,0.2,0.2,0.3,0.2c0.2,0,0.3,0,0.5,0c0.2,0,0.4,0,0.6,0s0.4,0,0.5,0c0,0,0.1,0.1,0.1,0.1c0,0.1,0,0.1,0,0.2s0,0.1,0,0.2
		c0,0.1,0,0.1-0.1,0.1c-0.3,0-0.7,0-1.1,0.1c-0.4,0.1-0.8,0.2-1.3,0.3c-0.5,0.1-0.9,0.3-1.4,0.4c-0.5,0.2-0.9,0.3-1.3,0.5
		c-0.4,0.2-0.9,0.4-1.5,0.8c-0.6,0.4-1.2,0.7-1.8,1.1s-1.1,0.7-1.6,0.9s-0.8,0.4-1,0.4c-0.1,0-0.2,0-0.3-0.1s-0.2-0.1-0.3-0.2
		s-0.1-0.2-0.1-0.2c0-0.1,0.1-0.1,0.3-0.2c0.4-0.1,0.9-0.2,1.5-0.5c0.6-0.3,1.1-0.5,1.6-0.9c0.5-0.3,1-0.6,1.4-0.9
		c0.4-0.3,0.7-0.5,0.8-0.6c0.1-0.1,0.2-0.4,0.3-1.1c0.1-0.6,0.2-1.4,0.3-2.4c0.1-0.9,0.2-1.9,0.2-3S8.6,17.7,8.6,16.7z M11.5,16.7
		c0.1,0.2,0.4,0.4,0.9,0.7c0.5,0.2,1.1,0.3,1.9,0.3c0.7,0,1.4-0.1,2-0.4c0.6-0.3,1.1-0.7,1.5-1.2c0.4-0.5,0.8-1.2,1-2
		c0.2-0.8,0.4-1.7,0.4-2.8c0-0.8-0.1-1.5-0.3-2.1c-0.2-0.6-0.5-1.2-0.9-1.6s-0.9-0.8-1.4-1c-0.5-0.2-1.1-0.4-1.7-0.4
		c-0.3,0-0.7,0-1,0.1c-0.3,0.1-0.6,0.2-0.9,0.3S12.3,6.9,12.1,7c-0.2,0.1-0.3,0.3-0.3,0.4c0,0.1-0.1,0.3-0.1,0.7
		c0,0.4,0,0.9-0.1,1.4s0,1.2-0.1,1.9s0,1.3,0,2s0,1.3,0,1.9C11.5,15.9,11.5,16.3,11.5,16.7z"/>
	<path fill="#AFB241" stroke="#A9A595" stroke-width="0.5" stroke-miterlimit="10" d="M34.8,13.7c-0.2,0.1-0.4,0.3-0.6,0.6
		c-0.2,0.2-0.5,0.4-0.8,0.6c-0.3,0.2-0.5,0.4-0.8,0.5s-0.5,0.2-0.8,0.2c-0.2,0-0.4-0.1-0.6-0.2c-0.2-0.1-0.3-0.2-0.5-0.3
		c-0.2-0.1-0.3-0.2-0.5-0.3s-0.3-0.2-0.5-0.2c-0.4,0-0.8,0.2-1.1,0.5c-0.3,0.4-0.5,0.8-0.7,1.4c-0.2,0.6-0.3,1.2-0.4,1.8
		c-0.1,0.7-0.1,1.3-0.1,1.9c0,0.5,0,0.9,0.1,1.2c0,0.3,0.1,0.6,0.2,0.8c0.1,0.2,0.2,0.3,0.3,0.4s0.3,0.1,0.5,0.1
		c0.2,0,0.4,0,0.7-0.1c0,0,0.1,0,0.1,0.1c0,0.1,0,0.1,0,0.2c0,0,0,0.1-0.1,0.1c0,0-0.1,0.1-0.1,0.1c-0.4,0.1-0.7,0.3-1.1,0.5
		c-0.4,0.2-0.7,0.3-0.9,0.4c-0.2,0.1-0.5,0.2-0.8,0.3c-0.3,0.1-0.6,0.2-0.8,0.2c-0.3,0-0.5,0-0.7-0.1c-0.2-0.1-0.3-0.2-0.3-0.2
		s0-0.2,0.1-0.2c0-0.1,0.1-0.2,0.1-0.4c0-0.2,0.1-0.5,0.1-0.9c0-0.3,0.1-0.7,0.1-1.1c0-0.4,0.1-0.8,0.1-1.2c0-0.4,0-0.8,0-1.2
		c0-0.9,0-1.7-0.1-2.3c-0.1-0.6-0.2-1.2-0.3-1.5c-0.1-0.4-0.3-0.7-0.6-0.8c-0.3-0.2-0.6-0.3-1-0.3c-0.1,0-0.2,0-0.2,0s-0.1,0-0.2,0
		c-0.1,0-0.1,0-0.1-0.1c0-0.1,0-0.2,0.1-0.2c0.2-0.1,0.5-0.3,0.8-0.5c0.4-0.2,0.8-0.4,1.2-0.6c0.4-0.2,0.8-0.4,1.2-0.6
		c0.4-0.2,0.7-0.2,0.8-0.2c0.2,0,0.4,0.1,0.5,0.2c0.1,0.1,0.3,0.3,0.3,0.5s0.1,0.5,0.2,0.7c0,0.3,0,0.5,0,0.8c0,0.2,0,0.4,0,0.6
		c0,0.2,0,0.4,0,0.7c0.7-1.1,1.4-1.9,2-2.5c0.6-0.6,1.1-0.9,1.7-0.9c0.2,0,0.4,0.1,0.6,0.2c0.2,0.2,0.4,0.3,0.6,0.6
		c0.2,0.2,0.4,0.4,0.7,0.6c0.2,0.2,0.5,0.2,0.7,0.2c0.2,0,0.4,0,0.5-0.1c0.1,0,0.2-0.1,0.2-0.1C34.8,13.4,34.8,13.5,34.8,13.7
		L34.8,13.7z"/>
	<path fill="#AFB241" stroke="#A9A595" stroke-width="0.5" stroke-miterlimit="10" d="M38.2,19.8c0,0.3,0,0.7,0,1
		c0,0.3,0.1,0.6,0.2,0.8c0.1,0.2,0.2,0.4,0.4,0.6c0.2,0.1,0.5,0.2,0.8,0.2c0.2,0,0.4,0,0.6-0.1c0.2,0,0.4-0.1,0.7-0.2
		c0.2-0.1,0.4-0.1,0.5-0.2c0.2-0.1,0.2-0.1,0.3-0.1c0,0,0.1,0,0.1,0c0,0,0,0.1,0,0.2s0,0.1-0.1,0.2s-0.1,0.1-0.1,0.2
		c-0.2,0.1-0.5,0.2-0.9,0.4c-0.4,0.2-0.9,0.4-1.5,0.7c-0.5,0.2-1,0.4-1.5,0.6c-0.5,0.2-0.9,0.2-1.2,0.2c-0.4,0-0.7-0.1-0.9-0.3
		c-0.2-0.2-0.3-0.5-0.3-0.9c0-0.1,0-0.2,0-0.3s0-0.2,0-0.3c0-0.2,0-0.5,0.1-0.9c0-0.4,0.1-0.9,0.1-1.5c0-0.5,0.1-1.1,0.1-1.6
		c0-0.5,0-1,0-1.4v-0.9c0-0.4,0-0.8-0.1-1.1s-0.1-0.6-0.2-0.8c-0.1-0.1-0.2-0.2-0.3-0.3C35.1,14,34.9,14,34.7,14
		c-0.1,0-0.2,0-0.3,0.1c-0.1,0-0.2,0.1-0.2,0.1c0,0-0.1,0-0.2-0.1s-0.1-0.2,0-0.2c0.1-0.1,0.4-0.2,0.7-0.4c0.4-0.2,0.8-0.4,1.2-0.6
		c0.5-0.2,0.9-0.4,1.3-0.6c0.4-0.2,0.7-0.3,0.9-0.3c0.2,0,0.3,0.1,0.4,0.2c0.1,0.1,0.1,0.2,0.1,0.4v0.1c0,0.2,0,0.4-0.1,0.8
		s-0.1,0.8-0.2,1.3c-0.1,0.5-0.1,1.1-0.2,1.8c0,0.7-0.1,1.4-0.1,2.2V19.8z M37.2,7.1c0.1,0,0.2,0.1,0.4,0.3c0.2,0.2,0.4,0.4,0.6,0.6
		c0.2,0.2,0.4,0.4,0.5,0.6c0.1,0.2,0.2,0.3,0.2,0.4c0,0.1-0.1,0.2-0.3,0.4c-0.2,0.2-0.4,0.3-0.7,0.5c-0.3,0.2-0.5,0.3-0.7,0.5
		c-0.2,0.1-0.4,0.2-0.5,0.2c0,0-0.2-0.1-0.4-0.2C36.2,10,36,9.9,35.8,9.7s-0.4-0.4-0.5-0.6S35,8.8,35,8.7c0-0.1,0.1-0.2,0.3-0.4
		c0.2-0.2,0.4-0.4,0.7-0.5c0.3-0.2,0.5-0.4,0.7-0.5C37,7.1,37.2,7.1,37.2,7.1z"/>
	<path fill="#AFB241" stroke="#A9A595" stroke-width="0.5" stroke-miterlimit="10" d="M45.1,17.6c0,0.1,0,0.3,0,0.4
		c0,0.1,0,0.2,0,0.4s0,0.3,0,0.6c0,0.2,0,0.5,0,0.9c0,0.6,0,1.1,0.1,1.5c0,0.4,0.1,0.7,0.2,0.9s0.2,0.4,0.3,0.5
		c0.1,0.1,0.3,0.1,0.5,0.1c0.1,0,0.2,0,0.4,0c0,0,0.1,0,0.1,0.1c0,0.1,0,0.2,0,0.2c-0.1,0.1-0.3,0.2-0.6,0.4s-0.6,0.3-1,0.5
		c-0.4,0.1-0.7,0.3-1.1,0.4c-0.4,0.1-0.7,0.2-1,0.2c-0.2,0-0.4,0-0.5-0.1c-0.1-0.1-0.2-0.1-0.2-0.2s0-0.1,0-0.1c0,0,0-0.1,0.1-0.1
		c0-0.1,0.1-0.2,0.1-0.3c0-0.1,0-0.3,0.1-0.4c0-0.2,0.1-0.5,0.1-0.9c0-0.4,0.1-0.7,0.1-1.2c0-0.4,0.1-0.9,0.1-1.3c0-0.5,0-0.9,0-1.3
		c0-0.2,0-0.4,0-0.7c0-0.3,0-0.6,0-1c0-0.5-0.1-0.9-0.2-1.2c-0.1-0.3-0.2-0.6-0.3-0.8c-0.1-0.2-0.3-0.4-0.5-0.5
		c-0.2-0.1-0.3-0.1-0.5-0.1c-0.1,0-0.2,0-0.2,0c-0.1,0-0.2,0-0.2,0c-0.1,0-0.1-0.1-0.1-0.2c0,0,0-0.1,0-0.1c0,0,0.1-0.1,0.2-0.2
		c0.2-0.1,0.5-0.3,0.9-0.5c0.4-0.2,0.7-0.4,1.1-0.6c0.4-0.2,0.7-0.3,1.1-0.5c0.3-0.1,0.6-0.2,0.8-0.2c0.5,0,0.7,0.3,0.7,0.8
		c0,0.1,0,0.2,0,0.4c0,0.2,0,0.4,0,0.7c0,0.2,0,0.4,0,0.6c0,0.2,0,0.3,0,0.4c0.3-0.3,0.7-0.7,1.1-1c0.4-0.3,0.8-0.7,1.3-0.9
		s0.9-0.5,1.5-0.7c0.5-0.2,1-0.3,1.6-0.3c1,0,1.8,0.3,2.4,0.8c0.6,0.6,0.9,1.5,0.9,2.7c0,0.3,0,0.7-0.1,1.2s-0.1,0.9-0.1,1.4
		c0,0.5-0.1,0.9-0.1,1.4c0,0.5-0.1,0.9-0.1,1.2c0,1.3,0.4,2,1.3,2c0.2,0,0.3,0,0.6-0.1s0.4-0.1,0.6-0.2c0.2-0.1,0.4-0.1,0.5-0.2
		s0.2-0.1,0.3-0.2c0,0,0,0,0.1,0c0,0,0,0.1,0.1,0.2c0,0.1,0,0.1,0,0.2c0,0,0,0.1,0,0.1c-0.1,0.1-0.4,0.2-0.8,0.5
		c-0.4,0.2-0.9,0.5-1.5,0.7c-0.5,0.2-1.1,0.5-1.6,0.6c-0.5,0.2-0.9,0.3-1.3,0.3c-0.4,0-0.6-0.1-0.8-0.3s-0.2-0.4-0.2-0.6
		c0-0.1,0-0.3,0.1-0.5c0-0.2,0.1-0.5,0.2-1c0.1-0.5,0.1-1,0.2-1.7c0.1-0.6,0.1-1.3,0.1-2.1c0-1.4-0.3-2.5-0.8-3.3
		c-0.5-0.7-1.2-1.1-2-1.1c-0.5,0-1,0.1-1.4,0.3c-0.4,0.2-0.7,0.5-1,0.8c-0.3,0.3-0.5,0.7-0.7,1.2C45.2,16.7,45.1,17.1,45.1,17.6z"/>
	<path fill="#AFB241" stroke="#A9A595" stroke-width="0.5" stroke-miterlimit="10" d="M68,20.7C68.1,20.7,68.1,20.7,68,20.7
		c0.1,0.1,0.1,0.1,0.1,0.2s0,0.2,0,0.2c0,0.1,0,0.1-0.1,0.2c-0.3,0.3-0.7,0.6-1.2,1c-0.5,0.3-1,0.7-1.5,1c-0.1,0.1-0.4,0.2-0.6,0.3
		c-0.3,0.1-0.6,0.3-0.9,0.4c-0.3,0.1-0.6,0.2-1,0.3c-0.3,0.1-0.7,0.1-0.9,0.1c-0.6,0-1.1-0.1-1.7-0.3c-0.5-0.2-1-0.5-1.4-0.9
		c-0.4-0.4-0.7-0.9-0.9-1.4s-0.3-1.2-0.3-1.8c0-0.7,0.1-1.4,0.3-2c0.2-0.6,0.4-1.2,0.7-1.7c0.3-0.5,0.5-0.9,0.7-1.2
		c0.2-0.3,0.4-0.6,0.5-0.7c-0.3,0-0.6,0-0.8,0c-0.3,0-0.5,0-0.7,0c-0.5,0-1,0-1.3,0c-0.4,0-0.7,0-1,0.1c-0.1,0-0.3,0.1-0.4,0.2
		c-0.1,0.1-0.2,0.2-0.3,0.2c0,0-0.1-0.1-0.1-0.1C55,14.5,55,14.4,55,14.4c0,0,0-0.1,0-0.1c0,0,0.1-0.1,0.3-0.3
		c0.2-0.2,0.5-0.4,0.8-0.6c0.3-0.2,0.7-0.5,1.1-0.8c0.4-0.3,0.8-0.6,1.1-0.8c0.4-0.2,0.7-0.5,0.9-0.6c0.3-0.2,0.4-0.3,0.5-0.3
		c0.1,0,0.2,0,0.3,0c0.1,0.1,0.1,0.1,0.1,0.1c0,0-0.1,0.1-0.2,0.2c-0.1,0.1-0.1,0.2-0.1,0.2c0.2,0.1,0.5,0.3,0.9,0.4
		c0.4,0.1,0.9,0.2,1.5,0.3c0.6,0.1,1.1,0.1,1.7,0.2s1.1,0.1,1.6,0.1c0.7,0,1.3,0,1.7-0.1s0.8-0.1,1.1-0.2c0.3-0.1,0.4-0.1,0.5-0.1
		c0,0,0,0,0.1,0.1c0,0,0.1,0.1,0.1,0.2c0,0-0.1,0.1-0.4,0.2c-0.2,0.1-0.5,0.3-0.7,0.4c-0.1,0.1-0.3,0.2-0.5,0.3s-0.4,0.3-0.7,0.4
		c-0.2,0.1-0.5,0.2-0.8,0.3c-0.3,0.1-0.5,0.2-0.8,0.2c-0.2,0-0.5,0.1-0.9,0.1c-0.3,0-0.7,0-1,0c-0.4,0-0.7,0-1.1,0s-0.7,0-1,0
		c0,0.1-0.1,0.2-0.2,0.4c-0.1,0.2-0.2,0.4-0.3,0.7c-0.1,0.3-0.2,0.6-0.3,1c-0.1,0.4-0.1,0.8-0.1,1.2c0,0.7,0.1,1.3,0.3,1.9
		c0.2,0.6,0.5,1.1,0.9,1.5c0.4,0.4,0.8,0.7,1.3,1c0.5,0.2,1.1,0.3,1.6,0.3c0.3,0,0.7,0,1-0.1c0.3-0.1,0.6-0.2,0.9-0.3
		c0.3-0.1,0.6-0.3,0.8-0.4c0.2-0.2,0.5-0.3,0.6-0.5L68,20.7z"/>
	<path fill="#AFB241" stroke="#A9A595" stroke-width="0.5" stroke-miterlimit="10" d="M75.3,16.5c-0.1-0.5-0.2-1-0.3-1.4
		c-0.1-0.4-0.3-0.7-0.5-1c-0.2-0.3-0.4-0.5-0.7-0.6s-0.6-0.2-1-0.2c-0.4,0-0.7,0.1-1,0.2c-0.3,0.1-0.6,0.3-0.8,0.5
		c-0.2,0.2-0.4,0.4-0.5,0.5c-0.1,0.2-0.2,0.3-0.2,0.4c0,0.1-0.1,0.2-0.2,0.2c-0.2,0-0.4-0.1-0.6-0.2c-0.2-0.2-0.3-0.4-0.3-0.6
		c0-0.1,0-0.2,0-0.3c0.4-0.2,0.8-0.4,1.4-0.7c0.5-0.2,1.1-0.5,1.7-0.7c0.6-0.2,1.2-0.4,1.7-0.5s1.1-0.2,1.5-0.2
		c0.7,0,1.2,0.1,1.6,0.3c0.4,0.2,0.6,0.5,0.8,0.8c0.2,0.4,0.3,0.8,0.3,1.3c0,0.5,0.1,1,0.1,1.6c0,0.8,0.1,1.6,0.2,2.4
		c0.1,0.8,0.2,1.5,0.4,2.1c0.2,0.6,0.4,1.1,0.6,1.5c0.3,0.4,0.6,0.6,0.9,0.6c0.2,0,0.4,0,0.6-0.1c0.2-0.1,0.4-0.1,0.6-0.2
		c0.2-0.1,0.4-0.2,0.5-0.3c0.2-0.1,0.3-0.2,0.3-0.2c0.1,0,0.2,0.1,0.3,0.2c0,0.1,0,0.2,0,0.2c0,0-0.2,0.1-0.4,0.2
		c-0.2,0.1-0.5,0.3-0.8,0.5c-0.3,0.2-0.7,0.4-1,0.6s-0.7,0.4-1.1,0.6c-0.4,0.2-0.7,0.3-1,0.4c-0.3,0.1-0.6,0.2-0.7,0.2
		c-0.2,0-0.4-0.1-0.6-0.3c-0.2-0.2-0.3-0.4-0.4-0.7c-0.1-0.3-0.2-0.6-0.3-1c-0.1-0.4-0.2-0.8-0.2-1.2c-0.3,0.2-0.7,0.5-1.1,0.9
		c-0.5,0.3-1,0.7-1.5,0.9c-0.5,0.3-1.1,0.5-1.7,0.8s-1.1,0.3-1.6,0.3c-0.4,0-0.8-0.1-1.2-0.2c-0.3-0.1-0.6-0.3-0.8-0.6
		c-0.2-0.2-0.4-0.5-0.5-0.8c-0.1-0.3-0.2-0.6-0.2-0.9c0-0.5,0.2-1,0.5-1.3c0.3-0.3,0.8-0.7,1.5-1c0.3-0.2,0.7-0.4,1.3-0.7
		c0.6-0.3,1.1-0.5,1.7-0.8c0.6-0.3,1.1-0.5,1.6-0.8C74.7,16.8,75.1,16.6,75.3,16.5z M76,20.3c0-0.3-0.1-0.6-0.1-0.9
		c0-0.3-0.1-0.6-0.1-0.9s-0.1-0.5-0.1-0.8c0-0.2-0.1-0.4-0.1-0.4c-0.3,0.1-0.6,0.2-0.9,0.3c-0.3,0.1-0.7,0.3-1,0.4
		c-0.3,0.2-0.6,0.3-0.9,0.5c-0.3,0.2-0.5,0.3-0.7,0.4c-0.4,0.2-0.7,0.5-0.9,0.7c-0.2,0.2-0.3,0.5-0.3,0.9c0,0.5,0.1,0.9,0.4,1.3
		c0.3,0.4,0.7,0.5,1.3,0.5c0.3,0,0.6-0.1,1-0.2c0.3-0.1,0.6-0.2,0.9-0.4c0.3-0.1,0.5-0.3,0.7-0.4s0.4-0.3,0.4-0.3
		c0.1-0.1,0.2-0.2,0.3-0.3C76,20.6,76.1,20.4,76,20.3z"/>
	<path fill="#AFB241" stroke="#A9A595" stroke-width="0.5" stroke-miterlimit="10" d="M81.1,6.4c0-0.4,0.1-0.6,0.3-0.6
		c0.2-0.1,0.4-0.1,0.6-0.1c0.6,0,1.1,0,1.5,0s0.9,0,1.2,0c0.4,0,0.7,0,1-0.1c0.3,0,0.6-0.1,0.9-0.2c0.1,0,0.2,0,0.2,0.1s0,0.2,0,0.3
		c0,0.1,0,0.2-0.1,0.2c-0.1,0.1-0.2,0.1-0.3,0.1c-0.1,0-0.2,0.1-0.4,0.1c-0.1,0-0.2,0-0.2,0c0,0.2-0.1,0.5-0.2,1.1
		c-0.1,0.6-0.1,1.3-0.2,2.1c-0.1,0.8-0.1,1.6-0.2,2.5c0,0.9-0.1,1.7-0.1,2.5c0.1-0.2,0.4-0.4,0.7-0.7c0.3-0.3,0.8-0.6,1.2-0.9
		c0.5-0.3,1-0.5,1.6-0.7s1.2-0.3,1.8-0.3c0.6,0,1.2,0.1,1.7,0.3c0.5,0.2,1,0.5,1.4,0.9c0.4,0.4,0.7,0.8,0.9,1.4
		c0.2,0.5,0.3,1.2,0.3,1.9c0,0.6-0.1,1.2-0.3,1.8s-0.5,1.2-0.9,1.8c-0.4,0.6-0.8,1.2-1.4,1.7c-0.5,0.5-1.1,1-1.8,1.4s-1.3,0.7-2,1
		c-0.7,0.2-1.4,0.4-2.2,0.4c-0.8,0-1.5-0.1-2-0.3s-0.9-0.4-1.3-0.6c-0.3-0.2-0.5-0.4-0.7-0.7c-0.1-0.2-0.2-0.3-0.2-0.4
		c0-0.1,0.1-0.5,0.2-1.2c0.1-0.6,0.1-1.4,0.2-2.4s0.1-2,0.2-3.1c0-1.1,0.1-2.2,0.1-3.3c0-1,0-1.7,0-2.4c0-0.6-0.1-1.2-0.1-1.6
		c-0.1-0.4-0.1-0.7-0.2-1C82.2,7.2,82.1,7,82,6.9c-0.2-0.2-0.4-0.4-0.6-0.4L81.1,6.4z M85,16.4c0,0.3-0.1,0.6-0.1,1
		c0,0.4,0,0.8,0,1.2c0,0.4,0,0.7,0,1.1c0,0.3,0,0.5,0,0.6c0,0.2,0.2,0.5,0.3,0.8c0.2,0.3,0.4,0.5,0.7,0.8c0.3,0.2,0.6,0.4,1,0.6
		c0.4,0.2,0.8,0.2,1.3,0.2c1,0,1.9-0.4,2.6-1.1c0.7-0.7,1-1.8,1-3.3c0-0.8-0.1-1.5-0.4-2.1c-0.2-0.6-0.5-1-0.9-1.4
		c-0.4-0.4-0.8-0.6-1.2-0.8c-0.4-0.2-0.8-0.2-1.1-0.2c-0.5,0-0.9,0.1-1.2,0.2c-0.3,0.1-0.6,0.3-0.8,0.5c-0.4,0.3-0.7,0.6-0.9,0.9
		C85.2,15.6,85.1,16,85,16.4z"/>
	<path fill="#AFB241" stroke="#A9A595" stroke-width="0.5" stroke-miterlimit="10" d="M104.4,21.6c0.1,0.1,0.1,0.1,0.1,0.2
		c0,0.1-0.2,0.3-0.6,0.5c-0.4,0.2-0.9,0.5-1.6,0.8c-0.6,0.3-1.3,0.6-1.9,0.8c-0.3,0.1-0.6,0.2-0.8,0.3c-0.2,0.1-0.5,0.1-0.7,0.1
		c-0.2,0-0.5-0.1-0.8-0.2c-0.3-0.1-0.6-0.2-0.9-0.4c-0.2-0.1-0.4-0.2-0.5-0.3s-0.2-0.2-0.2-0.2c0-0.1,0-0.1,0.1-0.2
		c0-0.1,0.1-0.1,0.1-0.2c0,0,0-0.1,0-0.2c0-0.1,0-0.2,0-0.2c0-0.4,0.1-1,0.2-1.8c0.1-0.8,0.1-1.6,0.1-2.6c0-0.9,0.1-1.9,0.1-2.9
		c0-1,0-1.9,0-2.8c0-1.1,0-1.9,0-2.6c0-0.7,0-1.2-0.1-1.6c0-0.5-0.1-0.9-0.2-1.1c-0.1-0.2-0.2-0.3-0.3-0.4c-0.1-0.1-0.2-0.2-0.3-0.2
		c-0.1,0-0.2,0-0.3,0c-0.1,0-0.2,0-0.2,0c-0.1,0-0.1,0-0.1,0c0-0.5,0.2-0.8,0.7-0.8c0.3,0,0.8,0,1.2,0c0.5,0,0.9,0,1.2,0
		c0.2,0,0.4,0,0.6,0c0.2,0,0.4,0,0.7-0.1c0.2,0,0.4-0.1,0.6-0.1c0.2,0,0.3-0.1,0.4-0.1c0.1,0,0.1,0,0.2,0.1c0,0.1,0.1,0.1,0.1,0.2
		c0,0.1,0,0.2,0,0.3c0,0.1-0.1,0.1-0.2,0.1c-0.1,0-0.2,0-0.3,0s-0.2,0-0.4,0.1c-0.1,0-0.2,0.1-0.2,0.3c-0.1,0.2-0.1,0.4-0.2,0.8
		c0,0.4-0.1,0.9-0.1,1.5c0,0.6-0.1,1.3-0.1,2.2c0,0.7-0.1,1.5-0.1,2.2c0,0.7,0,1.5-0.1,2.2c0,0.7,0,1.4,0,2c0,0.6,0,1.1,0,1.5
		c0,0.5,0,1,0,1.4c0,0.5,0.1,0.9,0.1,1.1c0.1,0.3,0.3,0.5,0.6,0.7c0.3,0.2,0.7,0.3,1.1,0.3c0.3,0,0.6,0,0.9-0.1
		c0.3-0.1,0.6-0.2,0.9-0.3c0.3-0.1,0.5-0.2,0.7-0.3C104.1,21.8,104.3,21.7,104.4,21.6z"/>
	<path fill="#AFB241" stroke="#A9A595" stroke-width="0.5" stroke-miterlimit="10" d="M114.2,21.2c-0.2,0.2-0.5,0.5-0.8,0.8
		c-0.4,0.3-0.8,0.7-1.4,1c-0.5,0.3-1.1,0.6-1.8,0.9c-0.7,0.2-1.4,0.4-2.1,0.4c-0.7,0-1.3-0.1-2-0.3s-1.2-0.5-1.7-0.9
		c-0.5-0.4-0.9-1-1.2-1.6c-0.3-0.6-0.5-1.4-0.5-2.3c0-0.7,0-1.4,0.1-1.9s0.2-1,0.4-1.4c0.2-0.4,0.3-0.7,0.6-1s0.4-0.5,0.6-0.8
		c0.3-0.3,0.6-0.6,1-0.8c0.4-0.3,0.8-0.5,1.2-0.7c0.4-0.2,0.9-0.4,1.4-0.5s1-0.2,1.5-0.2c0.9,0,1.6,0.1,2.1,0.4
		c0.5,0.3,0.7,0.7,0.7,1.2c0,0.3-0.1,0.6-0.3,0.9c0.2,0,0.4-0.1,0.6-0.2c0.3-0.1,0.5-0.2,0.8-0.4c0.3-0.1,0.5-0.2,0.7-0.3
		c0.2-0.1,0.3-0.2,0.4-0.2c0,0,0.1,0,0.1,0c0,0,0.1,0,0.1,0.1c0,0.2,0,0.4-0.1,0.5c-0.1,0.1-0.2,0.2-0.3,0.3
		c-0.3,0.2-0.6,0.4-1.1,0.6c-0.5,0.2-1,0.5-1.6,0.8c-0.6,0.3-1.2,0.5-1.9,0.8s-1.2,0.5-1.8,0.8c-0.6,0.2-1.1,0.5-1.5,0.7
		c-0.4,0.2-0.7,0.3-0.8,0.4c0,0.6,0.1,1.1,0.3,1.6s0.5,0.9,0.9,1.3c0.4,0.4,0.9,0.6,1.4,0.8c0.5,0.2,1.2,0.3,1.8,0.3
		c0.6,0,1.1-0.1,1.6-0.2c0.5-0.1,0.9-0.3,1.2-0.4c0.3-0.2,0.6-0.3,0.8-0.4c0.2-0.1,0.3-0.2,0.3-0.2c0.1,0,0.1,0,0.2,0.1
		C114.2,21.1,114.2,21.2,114.2,21.2z M105.6,17.5c0.3-0.1,0.6-0.2,0.9-0.4s0.7-0.3,1-0.5c0.3-0.2,0.6-0.3,0.9-0.5
		c0.3-0.1,0.5-0.3,0.6-0.4c0.3-0.2,0.4-0.6,0.4-1.1c0-0.2,0-0.4-0.1-0.6c-0.1-0.2-0.2-0.4-0.3-0.6c-0.1-0.2-0.3-0.3-0.5-0.4
		c-0.2-0.1-0.5-0.2-0.7-0.2c-0.2,0-0.5,0.1-0.7,0.2c-0.3,0.2-0.5,0.4-0.7,0.8c-0.2,0.4-0.4,0.8-0.6,1.4
		C105.7,15.9,105.6,16.6,105.6,17.5z"/>
	<path fill="#AFB241" stroke="#A9A595" stroke-width="0.5" stroke-miterlimit="10" d="M121.5,16.7c0-2,0-3.6,0-4.9
		c0-1.3-0.1-2.2-0.1-3c-0.1-0.7-0.1-1.2-0.2-1.5C121,7.2,120.9,7,120.7,7c0,0-0.1,0-0.3,0s-0.3,0-0.5,0c-0.2,0-0.3,0-0.5,0
		c-0.1,0-0.2,0-0.2-0.1c0,0,0-0.1,0-0.3c0-0.1,0-0.2,0.1-0.3c0.1,0,0.3,0,0.5,0c0.3,0,0.6,0,1,0s0.7,0,1.1,0c0.4,0,0.8,0,1.1,0
		c0.3,0,0.6,0,0.8,0s0.3,0,0.3,0c0.1,0,0.2-0.1,0.5-0.2c0.3-0.1,0.6-0.2,1-0.4c0.4-0.1,0.8-0.2,1.3-0.4c0.5-0.1,1-0.2,1.6-0.2
		c2,0,3.7,0.4,4.8,1.3c1.2,0.9,1.7,2,1.7,3.6c0,1.3-0.3,2.4-0.8,3.4c-0.5,1-1.2,1.9-2,2.6s-1.8,1.3-2.8,1.6c-1,0.4-2.1,0.6-3.2,0.6
		c-0.3,0-0.7,0-1.1,0c-0.4,0-0.7-0.1-0.8-0.2c0,0.4,0,0.9,0,1.6c0,0.7,0,1.3,0,2c0,0.7,0,1.2,0.1,1.8c0,0.5,0.1,0.9,0.2,1
		c0,0.1,0.2,0.2,0.3,0.2c0.2,0,0.3,0,0.5,0c0.2,0,0.4,0,0.6,0s0.4,0,0.5,0c0,0,0.1,0.1,0.1,0.1c0,0.1,0,0.1,0,0.2s0,0.1,0,0.2
		c0,0.1,0,0.1-0.1,0.1c-0.3,0-0.7,0-1.1,0.1c-0.4,0.1-0.8,0.2-1.3,0.3c-0.5,0.1-0.9,0.3-1.4,0.4c-0.5,0.2-0.9,0.3-1.3,0.5
		c-0.4,0.2-0.9,0.4-1.5,0.8c-0.6,0.4-1.2,0.7-1.8,1.1s-1.1,0.7-1.6,0.9s-0.8,0.4-1,0.4c-0.1,0-0.2,0-0.3-0.1s-0.2-0.1-0.3-0.2
		s-0.1-0.2-0.1-0.2c0-0.1,0.1-0.1,0.3-0.2c0.4-0.1,0.9-0.2,1.5-0.5c0.6-0.3,1.1-0.5,1.6-0.9c0.5-0.3,1-0.6,1.4-0.9
		c0.4-0.3,0.7-0.5,0.8-0.6c0.1-0.1,0.2-0.4,0.3-1.1c0.1-0.6,0.2-1.4,0.3-2.4c0.1-0.9,0.2-1.9,0.2-3S121.5,17.7,121.5,16.7z
		 M124.5,16.7c0.1,0.2,0.4,0.4,0.9,0.7c0.5,0.2,1.1,0.3,1.9,0.3c0.7,0,1.4-0.1,2-0.4c0.6-0.3,1.1-0.7,1.5-1.2c0.4-0.5,0.8-1.2,1-2
		c0.2-0.8,0.4-1.7,0.4-2.8c0-0.8-0.1-1.5-0.3-2.1c-0.2-0.6-0.5-1.2-0.9-1.6s-0.9-0.8-1.4-1c-0.5-0.2-1.1-0.4-1.7-0.4
		c-0.3,0-0.7,0-1,0.1c-0.3,0.1-0.6,0.2-0.9,0.3s-0.5,0.3-0.7,0.4c-0.2,0.1-0.3,0.3-0.3,0.4c0,0.1-0.1,0.3-0.1,0.7
		c0,0.4,0,0.9-0.1,1.4s0,1.2-0.1,1.9s0,1.3,0,2s0,1.3,0,1.9C124.5,15.9,124.5,16.3,124.5,16.7z"/>
	<path fill="#AFB241" stroke="#A9A595" stroke-width="0.5" stroke-miterlimit="10" d="M142.2,16.5c-0.1-0.5-0.2-1-0.3-1.4
		c-0.1-0.4-0.3-0.7-0.5-1c-0.2-0.3-0.4-0.5-0.7-0.6s-0.6-0.2-1-0.2c-0.4,0-0.7,0.1-1,0.2c-0.3,0.1-0.6,0.3-0.8,0.5
		c-0.2,0.2-0.4,0.4-0.5,0.5c-0.1,0.2-0.2,0.3-0.2,0.4c0,0.1-0.1,0.2-0.2,0.2c-0.2,0-0.4-0.1-0.6-0.2c-0.2-0.2-0.3-0.4-0.3-0.6
		c0-0.1,0-0.2,0-0.3c0.4-0.2,0.8-0.4,1.4-0.7c0.5-0.2,1.1-0.5,1.7-0.7c0.6-0.2,1.2-0.4,1.7-0.5s1.1-0.2,1.5-0.2
		c0.7,0,1.2,0.1,1.6,0.3c0.4,0.2,0.6,0.5,0.8,0.8c0.2,0.4,0.3,0.8,0.3,1.3c0,0.5,0.1,1,0.1,1.6c0,0.8,0.1,1.6,0.2,2.4
		c0.1,0.8,0.2,1.5,0.4,2.1c0.2,0.6,0.4,1.1,0.6,1.5c0.3,0.4,0.6,0.6,0.9,0.6c0.2,0,0.4,0,0.6-0.1c0.2-0.1,0.4-0.1,0.6-0.2
		c0.2-0.1,0.4-0.2,0.5-0.3c0.2-0.1,0.3-0.2,0.3-0.2c0.1,0,0.2,0.1,0.3,0.2c0,0.1,0,0.2,0,0.2c0,0-0.2,0.1-0.4,0.2
		c-0.2,0.1-0.5,0.3-0.8,0.5c-0.3,0.2-0.7,0.4-1,0.6s-0.7,0.4-1.1,0.6c-0.4,0.2-0.7,0.3-1,0.4c-0.3,0.1-0.6,0.2-0.7,0.2
		c-0.2,0-0.4-0.1-0.6-0.3c-0.2-0.2-0.3-0.4-0.4-0.7c-0.1-0.3-0.2-0.6-0.3-1c-0.1-0.4-0.2-0.8-0.2-1.2c-0.3,0.2-0.7,0.5-1.1,0.9
		c-0.5,0.3-1,0.7-1.5,0.9c-0.5,0.3-1.1,0.5-1.7,0.8s-1.1,0.3-1.6,0.3c-0.4,0-0.8-0.1-1.2-0.2c-0.3-0.1-0.6-0.3-0.8-0.6
		c-0.2-0.2-0.4-0.5-0.5-0.8c-0.1-0.3-0.2-0.6-0.2-0.9c0-0.5,0.2-1,0.5-1.3c0.3-0.3,0.8-0.7,1.5-1c0.3-0.2,0.7-0.4,1.3-0.7
		c0.6-0.3,1.1-0.5,1.7-0.8c0.6-0.3,1.1-0.5,1.6-0.8C141.6,16.8,142,16.6,142.2,16.5z M143,20.3c0-0.3-0.1-0.6-0.1-0.9
		c0-0.3-0.1-0.6-0.1-0.9s-0.1-0.5-0.1-0.8c0-0.2-0.1-0.4-0.1-0.4c-0.3,0.1-0.6,0.2-0.9,0.3c-0.3,0.1-0.7,0.3-1,0.4
		c-0.3,0.2-0.6,0.3-0.9,0.5c-0.3,0.2-0.5,0.3-0.7,0.4c-0.4,0.2-0.7,0.5-0.9,0.7c-0.2,0.2-0.3,0.5-0.3,0.9c0,0.5,0.1,0.9,0.4,1.3
		c0.3,0.4,0.7,0.5,1.3,0.5c0.3,0,0.6-0.1,1-0.2c0.3-0.1,0.6-0.2,0.9-0.4c0.3-0.1,0.5-0.3,0.7-0.4s0.4-0.3,0.4-0.3
		c0.1-0.1,0.2-0.2,0.3-0.3C142.9,20.6,143,20.4,143,20.3z"/>
	<path fill="#AFB241" stroke="#A9A595" stroke-width="0.5" stroke-miterlimit="10" d="M159.6,23.9c-0.1-0.2-0.3-0.6-0.5-1.1
		c-0.2-0.5-0.4-1.1-0.7-1.7c-0.2-0.6-0.5-1.3-0.8-2c-0.3-0.7-0.5-1.3-0.8-1.9c-0.3,0.5-0.6,1.1-1,1.7c-0.4,0.7-0.8,1.4-1.2,2
		c-0.4,0.7-0.8,1.3-1.1,1.9s-0.6,1-0.7,1.3c0,0.1-0.2,0.1-0.3,0.1c-0.2,0-0.3,0-0.4,0c-0.2,0-0.3-0.1-0.4-0.3
		c-0.1-0.4-0.2-1-0.4-1.6c-0.2-0.7-0.3-1.4-0.5-2.1c-0.2-0.7-0.4-1.5-0.7-2.2c-0.2-0.8-0.5-1.4-0.7-2c-0.2-0.6-0.5-1.1-0.7-1.5
		c-0.3-0.4-0.5-0.6-0.7-0.6c-0.1,0-0.2,0-0.2,0c-0.1,0-0.2,0-0.2,0c-0.1,0-0.2,0-0.3,0c-0.1,0-0.1-0.1-0.1-0.2c0,0,0-0.1,0.1-0.2
		c0.1-0.1,0.3-0.2,0.7-0.4c0.3-0.2,0.7-0.4,1.1-0.6c0.4-0.2,0.7-0.4,1.1-0.6c0.3-0.2,0.6-0.2,0.7-0.2c0.3,0,0.6,0.3,0.8,0.9
		c0.3,0.6,0.5,1.3,0.8,2.2c0.3,0.9,0.5,1.8,0.8,2.9c0.3,1,0.5,2,0.8,2.9c0.1-0.2,0.3-0.5,0.5-0.8c0.2-0.3,0.4-0.7,0.6-1.1
		c0.2-0.4,0.4-0.8,0.6-1.3c0.2-0.4,0.4-0.9,0.7-1.3c-0.1-0.2-0.1-0.4-0.2-0.6c-0.1-0.2-0.2-0.4-0.3-0.7c-0.1-0.2-0.2-0.5-0.3-0.7
		s-0.2-0.4-0.3-0.6c-0.1-0.1-0.2-0.2-0.3-0.3c-0.1,0-0.2-0.1-0.2-0.2c0,0,0-0.1,0-0.1c0.5-0.3,1-0.5,1.5-0.8
		c0.5-0.3,1.1-0.4,1.6-0.5c0.1,0,0.3,0.1,0.3,0.2c0.1,0.1,0.1,0.2,0.1,0.4c0.1,0.2,0.2,0.5,0.3,0.9c0.1,0.4,0.3,0.9,0.5,1.4
		c0.2,0.5,0.4,1.1,0.6,1.7c0.2,0.6,0.4,1.2,0.6,1.8c0.2,0.6,0.4,1.1,0.6,1.6c0.2,0.5,0.4,0.9,0.5,1.3c0.2-0.5,0.5-1,0.8-1.7
		c0.3-0.6,0.6-1.3,0.8-2c0.3-0.7,0.5-1.3,0.6-1.9c0.2-0.6,0.3-1.1,0.3-1.5c0-0.8-0.4-1.2-1.1-1.2c-0.2,0-0.4,0-0.5,0.1
		c-0.2,0-0.3,0.1-0.3,0.1s-0.1,0-0.1-0.1c0-0.1-0.1-0.1-0.1-0.2c0-0.1,0.1-0.1,0.3-0.2c0.2-0.1,0.5-0.2,0.9-0.2
		c0.4-0.1,0.8-0.1,1.3-0.2c0.5-0.1,0.9-0.1,1.4-0.1c0.4,0,0.7,0,0.9,0.1c0.2,0.1,0.4,0.2,0.5,0.4c-0.1,0.5-0.4,1.1-0.7,1.7
		c-0.3,0.7-0.7,1.3-1.1,2.1c-0.4,0.7-0.8,1.5-1.3,2.2c-0.5,0.8-0.9,1.5-1.3,2.2c-0.4,0.7-0.8,1.4-1.2,2c-0.4,0.6-0.6,1.1-0.8,1.5
		c0,0-0.1,0-0.3,0c-0.2,0-0.3,0-0.4,0c-0.1,0-0.2,0-0.2-0.1C159.8,24.2,159.7,24.1,159.6,23.9z"/>
	<path fill="#AFB241" stroke="#A9A595" stroke-width="0.5" stroke-miterlimit="10" d="M170.8,17.6c0,0.1,0,0.3,0,0.4
		c0,0.1,0,0.2,0,0.4s0,0.3,0,0.6c0,0.2,0,0.5,0,0.9c0,0.6,0,1.1,0.1,1.5c0,0.4,0.1,0.7,0.2,0.9s0.2,0.4,0.3,0.5
		c0.1,0.1,0.3,0.1,0.5,0.1c0.1,0,0.2,0,0.4,0c0,0,0.1,0,0.1,0.1c0,0.1,0,0.2,0,0.2c-0.1,0.1-0.3,0.2-0.6,0.4s-0.6,0.3-1,0.5
		c-0.4,0.1-0.7,0.3-1.1,0.4c-0.4,0.1-0.7,0.2-1,0.2c-0.2,0-0.4,0-0.5-0.1c-0.1-0.1-0.2-0.1-0.2-0.2s0-0.1,0-0.1c0,0,0-0.1,0.1-0.1
		c0-0.1,0.1-0.2,0.1-0.3c0-0.1,0-0.3,0.1-0.4c0-0.2,0.1-0.5,0.1-0.9c0-0.4,0.1-0.7,0.1-1.2c0-0.4,0.1-0.9,0.1-1.3c0-0.5,0-0.9,0-1.3
		c0-0.2,0-0.4,0-0.7c0-0.3,0-0.6,0-1c0-0.5-0.1-0.9-0.2-1.2c-0.1-0.3-0.2-0.6-0.3-0.8c-0.1-0.2-0.3-0.4-0.5-0.5
		c-0.2-0.1-0.3-0.1-0.5-0.1c-0.1,0-0.2,0-0.2,0c-0.1,0-0.2,0-0.2,0c-0.1,0-0.1-0.1-0.1-0.2c0,0,0-0.1,0-0.1c0,0,0.1-0.1,0.2-0.2
		c0.2-0.1,0.5-0.3,0.9-0.5c0.4-0.2,0.7-0.4,1.1-0.6c0.4-0.2,0.7-0.3,1.1-0.5c0.3-0.1,0.6-0.2,0.8-0.2c0.5,0,0.7,0.3,0.7,0.8
		c0,0.1,0,0.2,0,0.4c0,0.2,0,0.4,0,0.7c0,0.2,0,0.4,0,0.6c0,0.2,0,0.3,0,0.4c0.3-0.3,0.7-0.7,1.1-1c0.4-0.3,0.8-0.7,1.3-0.9
		s0.9-0.5,1.5-0.7s1-0.3,1.6-0.3c1,0,1.8,0.3,2.4,0.8s0.9,1.5,0.9,2.7c0,0.3,0,0.7-0.1,1.2c0,0.4-0.1,0.9-0.1,1.4
		c0,0.5-0.1,0.9-0.1,1.4c0,0.5-0.1,0.9-0.1,1.2c0,1.3,0.4,2,1.3,2c0.2,0,0.3,0,0.6-0.1s0.4-0.1,0.6-0.2c0.2-0.1,0.4-0.1,0.5-0.2
		c0.1-0.1,0.2-0.1,0.3-0.2c0,0,0,0,0.1,0s0,0.1,0.1,0.2c0,0.1,0,0.1,0,0.2c0,0,0,0.1,0,0.1c-0.1,0.1-0.4,0.2-0.8,0.5
		c-0.4,0.2-0.9,0.5-1.5,0.7c-0.5,0.2-1.1,0.5-1.6,0.6c-0.5,0.2-0.9,0.3-1.3,0.3c-0.4,0-0.6-0.1-0.8-0.3c-0.1-0.2-0.2-0.4-0.2-0.6
		c0-0.1,0-0.3,0.1-0.5c0-0.2,0.1-0.5,0.2-1c0.1-0.5,0.1-1,0.2-1.7c0.1-0.6,0.1-1.3,0.1-2.1c0-1.4-0.3-2.5-0.8-3.3
		c-0.5-0.7-1.2-1.1-2-1.1c-0.5,0-1,0.1-1.4,0.3c-0.4,0.2-0.7,0.5-1,0.8c-0.3,0.3-0.5,0.7-0.7,1.2C170.9,16.7,170.8,17.1,170.8,17.6z
		"/>
	<path fill="#AFB241" stroke="#A9A595" stroke-width="0.5" stroke-miterlimit="10" d="M182.2,23.5c-0.1,0.1-0.3,0.2-0.4,0.4
		c-0.1,0.2-0.2,0.3-0.2,0.4c0,0-0.1,0.1-0.1,0.1c-0.1,0-0.1,0-0.2,0c-0.1,0-0.2-0.1-0.2-0.2c0,0,0.1-0.2,0.2-0.4
		c0.1-0.2,0.3-0.4,0.5-0.8c0.2-0.4,0.4-0.7,0.7-1.1s0.4-0.7,0.6-1s0.3-0.5,0.4-0.6c0.1-0.1,0.2-0.1,0.3,0c0.1,0.1,0.1,0.1,0.1,0.2
		c0,0-0.1,0.1-0.1,0.1c0,0,0,0.1,0,0.2c0,0.1,0.1,0.3,0.4,0.6s0.6,0.4,1,0.6c0.4,0.2,0.8,0.4,1.3,0.5s0.9,0.2,1.4,0.2
		c0.5,0,1-0.2,1.3-0.5c0.3-0.3,0.5-0.7,0.5-1.2c0-0.6-0.2-1-0.5-1.3s-0.8-0.5-1.3-0.6c-0.5-0.1-1.1-0.3-1.7-0.4
		c-0.6-0.1-1.2-0.2-1.7-0.4c-0.5-0.2-1-0.4-1.3-0.8c-0.4-0.3-0.5-0.8-0.5-1.5c0-0.5,0.2-1,0.5-1.5c0.4-0.5,0.8-1,1.4-1.4
		c0.6-0.4,1.2-0.7,2-1c0.8-0.3,1.5-0.4,2.4-0.4c0.2,0,0.5,0,0.9,0.1c0.3,0,0.7,0.1,1,0.2c0.3,0.1,0.6,0.1,0.9,0.2
		c0.3,0.1,0.5,0.1,0.6,0.2c0,0,0,0.1,0,0.2c0,0.1-0.2,0.4-0.4,0.7c-0.2,0.3-0.4,0.6-0.7,0.9c-0.2,0.3-0.5,0.6-0.7,0.8
		c-0.2,0.2-0.3,0.3-0.4,0.3c0,0-0.1,0-0.1,0s-0.1,0-0.2,0c0-0.1,0-0.2,0-0.3c0-0.6-0.3-1-0.8-1.4c-0.5-0.3-1.3-0.5-2.2-0.5
		c-0.5,0-0.9,0.1-1.2,0.4c-0.3,0.3-0.5,0.6-0.5,1c0,0.6,0.2,1.1,0.5,1.4s0.8,0.5,1.4,0.7s1.1,0.3,1.7,0.4s1.2,0.2,1.7,0.4
		c0.5,0.2,1,0.4,1.4,0.8s0.5,0.9,0.5,1.5c0,0.3-0.1,0.6-0.2,0.9s-0.3,0.6-0.5,0.8c-0.2,0.3-0.5,0.5-0.7,0.7
		c-0.3,0.2-0.5,0.4-0.8,0.6c-0.2,0.2-0.5,0.3-0.8,0.5c-0.3,0.2-0.6,0.3-1,0.5s-0.7,0.3-1.1,0.4s-0.8,0.1-1.1,0.1
		c-0.2,0-0.5,0-0.9-0.1c-0.4-0.1-0.8-0.2-1.2-0.3c-0.4-0.1-0.8-0.2-1.1-0.3C182.4,23.6,182.3,23.5,182.2,23.5z"/>
</g>
</svg>
