<?xml version="1.0" encoding="utf-8"?>
<!-- Generator: Adobe Illustrator 22.1.0, SVG Export Plug-In . SVG Version: 6.00 Build 0)  -->
<svg version="1.1" id="Layer_7" xmlns="http://www.w3.org/2000/svg" xmlns:xlink="http://www.w3.org/1999/xlink" x="0px" y="0px"
	 viewBox="0 0 137.1 150.2" enable-background="new 0 0 137.1 150.2" xml:space="preserve">
<g id="G_x24_shadow">
	<g id="bodyBase">
		<path id="bodyBase_1_" d="M41.4,119.5c0-1.4,4.5-8.3,4.9-9.8c1.1-4.3-1.1-8,1.6-12.3c-1.5,0.3-4.2,1.1-4.2,1.1
			c-3.4,0.1-7.1-2.8-8.8-5.7c-2-3.6,0.2-11.4,0.9-12.4c2.5-3.6,3.9-5.1,5.6-9.3c2.1-5.3,3-11.6,5.8-16.7c0.6-1.1,3-2.2,3.3-3.2
			c0.4-1.2-0.7-3.4-0.5-4.8c0.4-3.2,2.2-4.3,4.2-6.5c4.4-4.8,8.4-8.3,15.3-8c6.5,0.3,8.8,3.4,13.1,7.6c2,2,3.9,2.8,4.6,5.8
			c0.4,1.4-0.4,3.5,0,4.6c0.6,1.7,1.2,1.8,2.3,3.6c2.9,5.1,4,11.3,6.1,16.6c1.6,4.1,3,6.1,5.3,9.5c1,1.4,4.4,8.5,1.7,12.9
			c-2.7,4.3-7.1,6-9,6.1s-2.9-0.3-3.8-0.4c2.1,3.9,0.1,7.9,1.2,11.7c0.9,3,5.3,6.8,5,9.7C86.8,119.5,46.9,119.5,41.4,119.5z"/>
	</g>
	<g id="S_x24_cape">
		<polygon points="41,96.6 37.3,119 46.8,118.9 48.8,95.5 		"/>
		<g>
			<polygon points="95.9,96.6 99.6,119 90.1,118.9 88.1,95.5 			"/>
		</g>
	</g>
	<g id="S_x24_longSwordRight">
		<path d="M45.9,99.6c-2.4,0-4.6-1-6.1-2.9l-0.3-0.4c-0.4-0.4-0.7-0.9-0.9-1.4c-0.3,0-0.6,0-0.9,0c-2.6,0-4.9-1.1-6.5-3.1
			c-2.1-2.6-2.1-5.8-1.8-7.8L7,56.8c-6.8-8.3-6.7-12.1-5.6-15l5.7-4.5l1-0.1c2.4,0,5.5,0.6,12.2,8.4L42.7,73c2,0.1,5.7,0.8,8,4.1
			c1.4,2.1,1.8,4.6,1,7.1c0.4,0.3,0.9,0.7,1.2,1.2l0.3,0.4c2.8,3.4,2.3,8.3-1.1,11.1l-1.2,1C49.6,99,47.8,99.6,45.9,99.6
			C45.9,99.6,45.9,99.6,45.9,99.6z"/>
	</g>
	<g id="S_x24_longSwordLeft">
		<path d="M90.9,99.6c2.4,0,4.6-1,6.1-2.9l0.3-0.4c0.4-0.4,0.7-0.9,0.9-1.4c0.3,0,0.6,0,0.9,0c2.6,0,4.9-1.1,6.5-3.1
			c2.1-2.6,2.1-5.8,1.8-7.8l22.5-27.4c6.8-8.3,6.7-12.1,5.6-15l-5.7-4.5l-1-0.1c-2.4,0-5.5,0.6-12.2,8.4L94.2,73
			c-2,0.1-5.7,0.8-8,4.1c-1.4,2.1-1.8,4.6-1,7.1c-0.4,0.3-0.9,0.7-1.2,1.2l-0.3,0.4c-2.8,3.4-2.3,8.3,1.1,11.1l1.2,1
			C87.3,98.9,89.1,99.6,90.9,99.6C90.9,99.6,90.9,99.6,90.9,99.6z"/>
	</g>
</g>
<g id="G_x24_body">
	<g id="D_x24_K_x24_body">
		<g>
			<g>
				<path fill="#E8B180" d="M70,86.3l3.8,12.3c0,0,0.1,2.5,1.5,4.1c0.2,1.9,1.8,7.2,2.7,8.9c0.2,0.4,0.4,1.2,0.4,1.2l0.6,2.1
					l-0.1,2.9h8.7l-4.1-5.4l0.2-3.4c0.2-3.8,0.4-6.7-0.8-8c-0.2-0.2-1-1.6-1.4-2s-0.3-1.8-0.2-1.9c0.7-1.3,0.5-3.5,0.8-5.5
					c0.2-1.9-0.4-9-1.6-11c0.2-5.2-2.9-8.2-2.9-8.2l0.5-6.4l2.3-4.1c-0.2-0.4,1.5-4.6,1.5-4.6l-9.6-2.1v-1.7H65v1.6l-9.7,2.1
					c0,0,1.7,4.2,1.5,4.6l2.3,4.1l0.5,6.4c0,0-3.1,3-2.9,8.2c-1.2,2-1.8,9.1-1.6,11s0.1,4.2,0.8,5.5c0,0.1,0.1,1.5-0.2,1.9
					c-0.5,0.4-1.2,1.8-1.4,2c-1.1,1.3-0.9,4.2-0.8,8l0.2,3.4l-4.1,5.4h8.7l-0.1-2.9l0.6-2.1c0,0,0.2-0.8,0.4-1.2
					c0.9-1.7,2.5-7,2.7-8.9c1.4-1.6,1.5-4.1,1.5-4.1l3.8-12.2c0,0,0.4-1,1.6-1C69.8,85.3,70,86.3,70,86.3z"/>
				<path fill="#E8B180" d="M48.4,72.6c-2.1,2.9-3,10.9-3,10.9s1,1.2,2.8,1.8c0.9-2.2,6.1-11,5.5-12.1c0.8-1.4,3.1-7.3,3.8-9
					c0.7-1.7,0.5-7.4,0.5-7.4s-1.2-0.9-3.5,0c-2,0.9-3,3.6-3,6c-1,2.3-1.4,6.9-1.9,8.1C49.6,71.4,48.5,72.6,48.4,72.6z"/>
				<path fill="#CD977A" d="M52.8,76.6"/>
				<path fill="#E8B180" d="M88.6,72.6c2.1,2.9,3,10.9,3,10.9s-1,1.2-2.8,1.8c-0.9-2.2-6.1-11-5.5-12.1c-0.8-1.4-3.1-7.3-3.8-9
					c-0.7-1.7-0.5-7.4-0.5-7.4s1.2-0.9,3.5,0c2,0.9,3,3.6,3,6c1,2.3,1.4,6.9,1.9,8.1C87.4,71.4,88.5,72.6,88.6,72.6z"/>
				<path fill="#CD977A" d="M84.2,76.6"/>
				<path opacity="0.2" fill="#262261" d="M56,64.7c-0.1,0.2-1.6,3.5-2.7,5.6c-0.3,0.5-0.6,0.9-0.9,1.2c-0.2,0.1-0.5,0.1-0.7,0
					c-0.3-0.1-1.1,0.2-0.7,0.5c0.1,0.1,0.2,0.1,0.3,0.2v0.1c0.3,0.9,0.2,2.2-0.1,3.5c-0.8,1.8-1.6,3.6-2.4,5.4
					c-0.3,0.4-0.6,0.7-0.8,1c-0.2,0.2,0,0.3,0.2,0.3c0,0.1-0.1,0.2-0.1,0.2c-0.1,0-0.1-0.1-0.2-0.1c-0.3-0.2-1.2,0.2-0.8,0.5
					c0.2,0.2,0.5,0.5,0.7,0.7c0,0,0,0.1,0.1,0.1l0,0C48,84,48.2,84,48.4,84c0-0.2,0.1-0.4,0.2-0.6c0-0.1,0.1-0.1,0.1-0.2
					c0,0,0,0,0.1-0.1c0.3-0.6,0.5-1.1,0.8-1.7c0.4-0.5,0.7-1,0.9-1.5c0.5-0.8,1-1.7,1.4-2.7c0.7-1.4,1.5-2.9,1.4-4.5l0,0
					c0.1,0,0.3-0.1,0.3-0.2c0.4-0.9,0.8-1.8,1.1-2.7c1-1.7,1.6-4.1,2-5.4C57.1,64.2,56.1,64.3,56,64.7z"/>
				<path opacity="0.2" fill="#262261" d="M81.2,64.7c0.1,0.2,1.6,3.5,2.7,5.6c0.3,0.5,0.6,0.9,0.9,1.2c0.2,0.1,0.5,0.1,0.7,0
					c0.3-0.1,1.1,0.2,0.7,0.5c-0.1,0.1-0.2,0.1-0.3,0.2v0.1c-0.3,0.9-0.2,2.2,0.1,3.5c0.8,1.8,1.6,3.6,2.4,5.4
					c0.3,0.4,0.6,0.7,0.8,1c0.2,0.2,0,0.3-0.2,0.3c0,0.1,0.1,0.2,0.1,0.2c0.1,0,0.1-0.1,0.2-0.1c0.3-0.2,1.2,0.2,0.8,0.5
					c-0.2,0.2-0.5,0.5-0.7,0.7c0,0,0,0.1-0.1,0.1l0,0C89.2,84,89,84,88.8,84c0-0.2-0.1-0.4-0.2-0.6c0-0.1-0.1-0.1-0.1-0.2
					c0,0,0,0-0.1-0.1c-0.3-0.6-0.5-1.1-0.8-1.7c-0.4-0.5-0.7-1-0.9-1.5c-0.5-0.8-1-1.7-1.4-2.7c-0.7-1.4-1.5-2.9-1.4-4.5l0,0
					c-0.1,0-0.3-0.1-0.3-0.2c-0.4-0.9-0.8-1.8-1.1-2.7c-1-1.7-1.6-4.1-2-5.4C80.1,64.2,81,64.3,81.2,64.7z"/>
			</g>
		</g>
		<path opacity="0.2" fill="#262261" d="M62.9,84.5c0.1,0.6,0.2,1.3,0.2,1.9c0.1,0.9-0.7,8.8-3.1,10.8h0.1c0.3,0.1,1.3,1.1,0.5,2.3
			c-1.1,1.4-2.5,0.9-2.6,0.9c-0.3,1.1,0.4,2.2,0.5,2.2c0,0-0.2,5.2-1.8,9.6c0.9,0.9,1,0.9,1.1,1.4c0.9-2.1,1.5-4,2.1-5.5
			s0.9-3.8,1.6-6.1c0-0.1,0.3-0.3,0.4-0.3c0.9-0.5,1.1-3.6,1.2-3.8c0.4-1.8,2.3-7,2.5-7.8c0.4-1.2,0.6-2.7,1.1-3.8
			C65.5,85.8,63,84.6,62.9,84.5z"/>
		<path opacity="0.2" fill="#262261" d="M74.1,84.5c-0.1,0.6-0.2,1.4-0.1,1.9c-0.1,0.9,0.7,8.8,3.1,10.8H77
			c-0.3,0.1-1.3,1.1-0.5,2.3c1.1,1.4,2.5,0.9,2.6,0.9c0.3,1.1-0.4,2.2-0.5,2.2c0,0,0.2,5.2,1.8,9.6c-0.9,0.9-1,0.9-1.1,1.4
			c-0.9-2.1-1.5-4-2.1-5.5s-0.9-3.8-1.6-6.1c0-0.1-0.3-0.3-0.4-0.3c-0.9-0.5-1.1-3.6-1.2-3.8c-0.4-1.8-2.3-7-2.5-7.8
			c-0.4-1.2-0.7-2.7-1.1-3.8C71.5,85.8,74.1,84.5,74.1,84.5z"/>
		<path id="chinShadow" opacity="0.2" fill="#262261" enable-background="new    " d="M62,55.7c0,0,2.6,4.4,6.8,4.4
			c4.2,0,6.7-4.3,6.7-4.3l-3.2-0.7v-0.6L65,54.4v0.7L62,55.7z"/>
	</g>
</g>
<g id="underGarments">
	<g id="C_x24_D_x24_underwear">
		<path id="C_x24_D_x24_bra" fill="#7CB1DD" d="M73.2,60.5c-2.4,0-4.4,1.8-4.7,2.5c-0.4-0.7-2.4-2.5-4.7-2.5c-2.4,0-4.3,1.2-4.7,2.5
			l-1.3,0.7l1.3,2.3l0.4,5.2h18.2l0.4-5.2l1.3-2.3L78,63C77.7,62,75.6,60.5,73.2,60.5z"/>
		<path id="C_x24_D_x24_panties" fill="#7CB1DD" d="M80.5,80.6c0-0.8,0-1.5-0.1-2.2L69.5,80l-1,0.1l-1-0.1l-10.9-1.7
			c-0.1,0.7-0.2,1.4-0.1,2.2c-0.1,0.2-0.2,0.5-0.4,0.8l10.8,5v-0.1H70v0.1l10.8-5C80.7,81.1,80.6,80.8,80.5,80.6z"/>
	</g>
</g>
<g id="G_x24_hands">
	<g id="K_x24_hands">
		<path fill="#E8B180" d="M46.9,83.1c-1.7-1.2-5,1-5,1l-1.6,3.3l5.2,3.7c0,0,2.4-4.5,3-5.5c0.3-1,0.1-1.1,0.1-1.1
			S48.5,84.4,46.9,83.1z"/>
		<path opacity="0.2" fill="#262261" enable-background="new    " d="M43.5,85l-3.3,2.4l4.8,4.4l2.4-4.3c0,0,0.7-1.2,1.1-1.9
			c-0.1,0.2-1.2,2-3,0.3C43.8,85.3,43.5,85,43.5,85z"/>
		<path fill="#E8B180" d="M90.1,83.1c1.7-1.2,5,1,5,1l1.6,3.3l-5.2,3.7c0,0-2.4-4.5-3-5.5c-0.3-1-0.1-1.1-0.1-1.1
			S88.5,84.4,90.1,83.1z"/>
		<path opacity="0.2" fill="#262261" enable-background="new    " d="M93.5,85l3.3,2.4L92,90.8l-2.4-3.3c0,0-0.7-1.2-1.1-1.9
			c0.1,0.2,1.2,2,3,0.3C93.2,85.3,93.5,85,93.5,85z"/>
	</g>
</g>
<g id="G_x24_head">
	<g id="D_x24_K_x24_headBase">
		<g>
			<path fill="#E8B180" d="M79.9,46.2c-0.1-0.2-2-1-2.8,1.1v0.1L76,43.1c-1.1-1.9-3.2-4.2-5.9-4.2h-1.6h-0.1h-1.6
				c-2.7,0-4.8,2.2-5.9,4.2l-1.1,4.3v-0.1c-0.7-2.1-2.7-1.3-2.8-1.1c-0.3,0.9-0.6,1.2,0.3,3.8c0.3,0.6,1.2,0.5,1.7,0.3
				c1.4,3.2,5.5,4.4,6.9,5.2c1.5,0.9,4,0.9,5.1,0c1-0.8,5.6-1.8,6.8-5.2c0.5,0.2,1.4,0.3,1.7-0.3C80.6,47.4,80.2,47.1,79.9,46.2z"/>
		</g>
		
			<linearGradient id="SVGID_1_" gradientUnits="userSpaceOnUse" x1="-481.7911" y1="125.5991" x2="-481.7911" y2="95.4717" gradientTransform="matrix(-1 0 0 -1 -423.507 152)">
			<stop  offset="0" style="stop-color:#BE1E2D"/>
			<stop  offset="0.9981" style="stop-color:#BE1E2D;stop-opacity:0"/>
		</linearGradient>
		<path opacity="0.55" fill="url(#SVGID_1_)" enable-background="new    " d="M58.8,49.1c0-0.2,0-0.4,0.2-0.5h0.1l0,0
			c0.1,0,0.3-0.1,0.4,0c0.1-0.2,0.1-0.3,0.2-0.4c0-0.2,0-0.5,0.1-0.7c0.1-0.1-0.2-0.3-0.1-0.4c-0.8-1.8-2.6-1.1-2.7-0.9
			c-0.3,0.9-0.6,1.2,0.3,3.8c0.2,0.4,0.6,0.5,1.1,0.4s0.6-0.2,0.8-0.5c0-0.1,0-0.2,0-0.3C58.9,49.6,58.7,49.4,58.8,49.1z"/>
		
			<linearGradient id="SVGID_2_" gradientUnits="userSpaceOnUse" x1="56.188" y1="105.1972" x2="59.688" y2="102.7597" gradientTransform="matrix(1 0 0 -1 0 152)">
			<stop  offset="0" style="stop-color:#BE1E2D"/>
			<stop  offset="0.9981" style="stop-color:#BE1E2D;stop-opacity:0"/>
		</linearGradient>
		<path opacity="0.31" fill="url(#SVGID_2_)" enable-background="new    " d="M58.4,49.7c-0.5-0.2-0.9-0.8-0.9-1.4
			c0-0.7,0.6-1.2,1.3-1c0.4,0.1,0.7,0.4,0.8,0.8c0,0,0.2-0.4,0.1-0.6c-0.1-0.1-0.1-0.4-0.3-0.8C58.5,45.4,57,46,57,46.2
			c-0.3,0.9-0.6,1.2,0.3,3.8c0.3,0.6,1.2,0.5,1.7,0.3c0.2,0.4,0.4,0.8,0.7,1.2c-0.1-0.6-0.1-1.2-0.1-1.8
			C59.3,49.9,58.8,49.9,58.4,49.7z"/>
		<path opacity="0.61" fill="#FFFFFF" enable-background="new    " d="M58.6,46.3L58.6,46.3C58.6,46.2,58.6,46.2,58.6,46.3
			c-0.1-0.1-0.2-0.1-0.2-0.1c-0.4-0.1-0.9-0.1-1.1,0.3l0,0c0,0-0.1,0-0.1,0.1s0,0.1,0.1,0.1c0.1,0.1,0.3,0,0.5-0.1
			c0.1,0,0.6-0.1,0.8-0.1C58.6,46.4,58.7,46.4,58.6,46.3L58.6,46.3z"/>
		
			<linearGradient id="SVGID_3_" gradientUnits="userSpaceOnUse" x1="65.3226" y1="125.5991" x2="65.3226" y2="95.4717" gradientTransform="matrix(1 0 0 -1 13.4407 152)">
			<stop  offset="0" style="stop-color:#BE1E2D"/>
			<stop  offset="0.9981" style="stop-color:#BE1E2D;stop-opacity:0"/>
		</linearGradient>
		<path opacity="0.55" fill="url(#SVGID_3_)" enable-background="new    " d="M78.2,49.1c0-0.2,0-0.4-0.2-0.5h-0.1l0,0
			c-0.1,0-0.3-0.1-0.4,0c-0.1-0.2-0.1-0.3-0.2-0.4c0-0.2,0-0.5-0.1-0.7c-0.1-0.1,0.2-0.3,0.1-0.4c0.8-1.8,2.6-1.1,2.7-0.9
			c0.3,0.9,0.6,1.2-0.3,3.8c-0.2,0.4-0.6,0.5-1.1,0.4s-0.6-0.2-0.8-0.5c0-0.1,0-0.2,0-0.3C78,49.6,78.2,49.4,78.2,49.1z"/>
		
			<linearGradient id="SVGID_4_" gradientUnits="userSpaceOnUse" x1="-490.8491" y1="105.2221" x2="-487.3491" y2="102.7846" gradientTransform="matrix(-1 0 0 -1 -410.0924 152)">
			<stop  offset="0" style="stop-color:#BE1E2D"/>
			<stop  offset="0.9981" style="stop-color:#BE1E2D;stop-opacity:0"/>
		</linearGradient>
		<path opacity="0.31" fill="url(#SVGID_4_)" enable-background="new    " d="M78.5,49.7c0.5-0.2,0.9-0.8,0.9-1.4
			c0-0.7-0.6-1.2-1.3-1c-0.4,0.1-0.7,0.4-0.8,0.8c0,0-0.2-0.4-0.1-0.6c0.1-0.1,0.1-0.4,0.3-0.8c0.9-1.3,2.4-0.7,2.4-0.5
			c0.3,0.9,0.6,1.2-0.3,3.8c-0.3,0.6-1.2,0.5-1.7,0.3c-0.2,0.4-0.4,0.8-0.7,1.2c0.1-0.6,0.1-1.2,0.1-1.8
			C77.6,49.9,78.1,49.9,78.5,49.7z"/>
		<path opacity="0.61" fill="#FFFFFF" enable-background="new    " d="M78.4,46.3L78.4,46.3C78.4,46.2,78.4,46.2,78.4,46.3
			c0.1-0.1,0.2-0.1,0.2-0.1c0.4-0.1,0.9-0.1,1.1,0.3l0,0c0,0,0.1,0,0.1,0.1s0,0.1-0.1,0.1c-0.1,0.1-0.3,0-0.5-0.1
			c-0.1,0-0.6-0.1-0.8-0.1C78.4,46.4,78.3,46.4,78.4,46.3C78.3,46.3,78.4,46.3,78.4,46.3z"/>
	</g>
</g>
<g id="face">
	<g id="L3_x24_D_x24_C_x24_lips">
		<path fill="#9B3C00" d="M69,51.8c-0.2,0-0.5,0.3-0.5,0.3s-0.2-0.3-0.4-0.3c-0.2,0-1.9,0.8-1.9,0.8h0.1c0,0,0.1,1,2.2,1
			c2.2,0,2.2-1,2.2-1h0.1C70.8,52.6,69.2,51.8,69,51.8z"/>
		<path opacity="0.2" fill="#262261" enable-background="new    " d="M66.3,52.6h4.6c0,0-1.6-0.7-1.8-0.7c-0.2,0-0.5,0.3-0.5,0.3
			s-0.2-0.3-0.4-0.3C68,51.9,66.3,52.6,66.3,52.6z"/>
	</g>
	<g id="L2_x24_D_x24_nose">
		<path id="shadow" opacity="0.17" enable-background="new    " d="M67.3,49.8c0,0,0.8,0.6,0.9,0.7c0.1,0.1,0.3,0.1,0.5,0
			c0.1-0.2,0.9-0.7,1-0.7c0,0-0.6,1.2-0.9,1.2c-0.3,0-0.2,0-0.6,0S67.3,49.8,67.3,49.8z"/>
		
			<linearGradient id="redGradient_1_" gradientUnits="userSpaceOnUse" x1="68.479" y1="100.187" x2="68.479" y2="105.4195" gradientTransform="matrix(1 0 0 -1 0 152)">
			<stop  offset="0" style="stop-color:#ED1C24;stop-opacity:0.5"/>
			<stop  offset="1" style="stop-color:#ED1C24;stop-opacity:0"/>
		</linearGradient>
		<path id="redGradient" opacity="0.76" fill="url(#redGradient_1_)" enable-background="new    " d="M67.8,46.7
			c0,0-0.5,3.1-0.5,3.2c0,0,0.9,1,1.1,1c0.2,0,1.2-0.9,1.2-0.9c0.1-0.1-0.5-3.3-0.5-3.3C69,46.5,67.8,46.5,67.8,46.7z"/>
		<ellipse id="Highlight" opacity="0.66" fill="#FFFFFF" enable-background="new    " cx="68.2" cy="50.1" rx="0.3" ry="0.2"/>
	</g>
	<g id="L1_x24_D_x24_C_x24_eyes">
		<path fill="#603813" d="M65.1,49c-0.4-0.1-0.5,0-0.7,0c-0.3,0-0.6-0.3-0.6-0.6c0-0.1-0.3-0.3-0.2-0.6c0.4,0.3,0.6,0,0.8,0
			C65.1,47.8,65.1,48.8,65.1,49z"/>
		<path fill="#603813" d="M71.7,49.1c0.4-0.1,0.5,0,0.7,0c0.3,0,0.6-0.3,0.6-0.6c0-0.1,0.3-0.3,0.2-0.6c-0.4,0.3-0.6,0-0.8,0
			C71.7,47.9,71.7,48.9,71.7,49.1z"/>
		<path fill="#231F20" d="M63.1,46.6c0,0,2.2-1.9,3.1,0.9C65.2,46.1,63.9,46.1,63.1,46.6z"/>
		<path fill="#231F20" d="M74,46.6c0,0-2.2-1.9-3.1,0.9C71.8,46.1,73.1,46.1,74,46.6z"/>
		<path opacity="0.2" fill="#262261" enable-background="new    " d="M64.4,46.2c-0.5,0-1.2,0.1-1.4,0.6c-0.2,0.4,0.3,0.8,0.7,1.1
			v-0.1c0.5-1,1.7-0.3,1.4,1.1c0,0,0.5,0,0.7-0.3C66.9,47.7,65.7,46.3,64.4,46.2z"/>
		<path opacity="0.2" fill="#262261" enable-background="new    " d="M73.2,46.2c-1-0.4-1.8,0.5-1.8,0.5c-0.1,0.1-1,1.1,0,2.2
			c0.1,0.1,0.2,0.1,0.3,0.1l0,0c-0.1-0.1-0.1-1,0.2-1.3c0.5-0.7,1.2,0.2,1.2,0.4c0.3-0.1,0.7-0.3,0.8-0.6
			C74.2,46.8,73.8,46.3,73.2,46.2z"/>
	</g>
</g>
<g id="Armor">
	<g id="L4_x24_C_x24_D_x24_leatherArmor">
		<path fill="#914E00" d="M77.8,72.4c0-2.3,0.9-6.9,0.9-6.9c0.5-1,0.8-1.6,0.6-1.4c0,0,0,0,0,0c-2.3-0.9-0.3-7.3-0.3-7.3l-2.6-0.8
			l0.2-0.3L75,55.4l-6.4,10.3l-6.4-10.3l-1.6,0.3l0.2,0.3l-2.6,0.8c0,0,2,6.4-0.3,7.3c0,0,0,0,0,0c-0.1-0.2,0.1,0.4,0.6,1.4
			c0,0,0.9,4.5,0.9,6.9c0,0-2.2,2.3-2.8,5.5c2.8-0.7,7.8,5.6,10.8,8.4h2.2c3.1-2.8,8-9.1,10.8-8.4C80.1,74.7,77.8,72.4,77.8,72.4z"
			/>
		<path opacity="0.39" fill="#223549" d="M77.8,72.4c0-2.3,0.9-6.9,0.9-6.9c0.5-1,0.8-1.6,0.6-1.4C79,64.6,78,64.6,78,64.7
			c0.1,0.7,0.8,3.1-2,5c-1.9,1.2-4.7,0.8-7.3-0.7v0c0,0,0,0,0,0c0,0,0,0,0,0v0c-2.6,1.5-5.5,2-7.3,0.7c-2.8-1.9-2.1-4.2-2-5
			c0-0.1-1-0.1-1.4-0.6c-0.1-0.2,0.1,0.4,0.6,1.4c0,0,0.9,4.5,0.9,6.9c0,0-2.2,2.3-2.8,5.5c2.8-0.7,7.8,5.6,10.8,8.4h2.2
			c3.1-2.8,8-9.1,10.8-8.4C80.1,74.7,77.8,72.4,77.8,72.4z"/>
		<g>
			<polygon opacity="0.39" fill="#223549" points="68.7,66.3 76.4,56.1 77.1,56.3 			"/>
			<polygon opacity="0.39" fill="#223549" points="68.6,66.3 60.9,56.1 60.2,56.3 			"/>
		</g>
		<rect x="68.6" y="68.9" opacity="0.53" fill="#223549" width="0.2" height="17.5"/>
	</g>
	<g id="L3_x24_C_x24_D_x24_skirt">
		<path id="skirt" fill="#914E00" d="M53.4,81.5c0,0,6.2,6.4,14.5,6.9S84.5,82,84.5,82l-6.2-9c0,0-5.5,3.1-9.5,3.1
			c-4,0-9.8-3.2-9.8-3.2L53.4,81.5z"/>
		<g opacity="0.39">
			<path fill="#223549" d="M58.6,75.9c0,0-2.5,0.5-3.5,4.2c-1,3.8,2,1.9,2,1.9s3.5-4.1,2.6-5.8C58.8,74.5,58.6,75.9,58.6,75.9z"/>
			<path fill="#223549" d="M62.7,78.7c0,0-2.3,1-2.2,4.7c0.1,3.7,2.4,1.3,2.4,1.3s2.2-4.7,0.9-6C62.6,77.4,62.7,78.7,62.7,78.7z"/>
			<path fill="#223549" d="M68.2,79.9c0,0-2,1.5-0.9,5.2c1.1,3.7,2.8,0.7,2.8,0.7s0.9-5.2-0.7-6.2C67.7,78.6,68.2,79.9,68.2,79.9z"
				/>
			<path fill="#223549" d="M74.2,78.9c0,0-1.4,1.9,0.7,5c2.1,3.2,2.8,0,2.8,0s-0.7-5-2.5-5.5C73.3,77.8,74.2,78.9,74.2,78.9z"/>
			<path fill="#223549" d="M77.8,76.6c0,0-0.8,2.3,2.3,4.8s2.8-0.7,2.8-0.7s-2.3-4.8-4.3-4.9C76.6,75.8,77.8,76.6,77.8,76.6z"/>
		</g>
	</g>
	<g id="L2_x24_C_x24_D_x24_furLiner">
		<path fill="#BFA181" d="M86.1,82.4c0.3-0.1,0.6-0.1,0.9,0c0.1,0,0.1,0.1,0.2,0.1c-0.2-0.1-0.3-0.3-0.4-0.5
			c-0.3-0.3-0.7-0.3-1.1-0.2c0,0-0.1,0-0.1,0c0-0.1,0.1-0.3,0.3-0.2c-0.1-0.4-0.5-0.3-0.6-0.4c0.2-0.4-0.2-1-0.6-1.1
			c0,0,0.1,0.6-0.1,0.7c-0.1,0-0.3-0.2-0.3-0.2c0,0,0,0,0,0c0,0,0.2-0.2-0.2-0.4c0.1,0.3-0.1,0.3-0.2,0.4c-0.1,0-0.2,0-0.2,0
			c-0.2,0-0.7-0.1-0.7-0.2c-0.1,0.2-0.3,0.2-0.5,0.2c0,0,0.3,0,0.3,0c-0.1,0-0.6,0.1-1.4,0.7c0,0,0.1,0,0.3-0.1
			c0.3-0.1,0.7-0.2,1-0.2l0,0c-0.2,0-0.6,0.2-0.7,0.3c-0.3,0.1-0.5,0.3-0.8,0.4c-0.3,0.2-0.6,0.4-0.8,0.6c-0.1-0.1-0.1-0.2-0.2-0.3
			c0,0.1,0,0.1,0,0.2c0,0.4-0.1,0.7-0.1,0.7c0,0,0,0.1,0,0.1l-0.3,0.2c0.1-0.3-0.1-0.5-0.1-0.5c-0.1,0.5-0.3,0.5-0.5,0.6
			c-0.3,0.1-0.9,1.7-0.6,0.6c0-0.1-0.4,0.4-0.5,0.6l0,0c0.1-0.3,0.3-0.6,0.5-0.9c0.1-0.1,0.2-0.2,0.2-0.2c-0.9,0.6-1.1,1-1.1,1.1
			c0,0,0.1-0.3,0.1-0.3c-0.1,0.1-0.2,0.3-0.4,0.4c0,0,0,0.1,0,0.1c0,0.1-0.4,0.4-0.7,0.3c0,0.1,0.1,0.2,0.1,0.3c0,0,0,0,0,0
			c-0.2-0.1-0.6-0.4-0.6-0.4c-0.1,0.1-0.4,0-0.5,0c0,0,0.3,0.1,0.3,0.2c-0.1,0-0.5-0.1-1.6,0.2c0,0,0.1,0,0.3,0c0.4,0,0.7,0,1,0.2
			l0,0c-0.2,0-0.6,0-0.8,0c-0.3,0-0.6,0-0.9,0.1c-0.3,0-0.7,0.2-1,0.2c0-0.1,0-0.3-0.1-0.4c0,0.1,0,0.1,0,0.2
			c-0.1,0.4-0.4,0.6-0.4,0.6c0,0,0,0-0.1,0.1L72,86.2c0.2-0.2,0-0.5,0-0.5c-0.3,0.4-0.4,0.4-0.7,0.4c-0.4,0-1.4,1.2-0.8,0.3
			c0.1-0.1-0.5,0.2-0.7,0.3l0,0c0.2-0.3,0.5-0.5,0.8-0.6c0.2-0.1,0.3-0.1,0.3-0.1c-1,0.2-1.4,0.5-1.5,0.5c0,0,0.2-0.3,0.2-0.2
			c-0.2,0.1-0.3,0.2-0.5,0.2c0,0,0,0.1,0,0.1c0,0.1-0.6,0.3-0.8,0.1c0,0.2,0,0.4,0.1,0.5c0,0,0,0,0,0c-0.1-0.2-0.3-0.6-0.3-0.7
			c-0.2,0-0.3-0.1-0.5-0.2c0,0,0.2,0.2,0.2,0.3c-0.1-0.1-0.4-0.4-1.5-0.6c0,0,0.1,0.1,0.2,0.1c0.3,0.2,0.6,0.4,0.8,0.6l0,0
			c-0.1-0.1-0.5-0.3-0.7-0.3c-0.3-0.1-0.5-0.2-0.8-0.3c-0.3-0.1-0.7-0.2-1-0.3c0-0.1,0.1-0.3,0.1-0.4c0,0-0.1,0.1-0.1,0.1
			c-0.3,0.3-0.6,0.3-0.6,0.4c0,0-0.1,0-0.1,0l-0.3-0.1c0.3-0.1,0.3-0.4,0.3-0.4c-0.4,0.2-0.5,0.1-0.8,0c-0.3-0.2-1.8,0.4-0.9-0.1
			c0.1-0.1-0.6-0.1-0.7,0l0,0c0.3-0.1,0.7-0.2,1-0.2c0.2,0,0.3,0,0.3,0c-1-0.3-1.4-0.2-1.6-0.2c0,0,0.3-0.1,0.3-0.1
			c-0.2,0-0.4,0.1-0.5-0.1c0,0,0,0.1-0.1,0.1c-0.1,0.1-0.6,0-0.7-0.3c-0.1,0.1-0.1,0.2-0.1,0.3c0-0.2,0-0.5,0-0.5
			c-0.2,0-0.3-0.3-0.4-0.4c0,0,0.1,0.3,0,0.3c0-0.1-0.3-0.5-1.1-1.1c0,0,0.1,0.1,0.2,0.2c0.2,0.3,0.4,0.6,0.5,0.9l0,0
			c-0.1-0.2-0.4-0.5-0.5-0.6c-0.2-0.2-0.4-0.4-0.6-0.6c-0.2-0.2-0.6-0.4-0.8-0.6c0.1-0.1,0.2-0.2,0.3-0.3c-0.1,0-0.1,0.1-0.2,0.1
			c-0.4,0.2-0.7,0.1-0.7,0.1c0,0-0.1,0-0.1,0l-0.3-0.2c0.3,0,0.4-0.3,0.4-0.3c-0.5,0.1-0.5-0.1-0.7-0.3C56,81,54.4,81,55.5,80.9
			c0.1,0-0.5-0.3-0.7-0.3l0,0c0.3,0,0.7,0.1,1,0.2c0.1,0.1,0.3,0.1,0.3,0.1c-0.8-0.7-1.2-0.8-1.4-0.8c0,0,0.3,0,0.3,0
			c-0.1-0.1-0.4-0.1-0.5-0.3c0,0-0.1,0-0.1,0.1c-0.1,0-0.6-0.3-0.5-0.6c-0.4,0.2-0.3,0.6-0.3,0.6c-0.1-0.1-0.3-0.3-0.2-0.3
			c0,0,0-0.1,0.1-0.1c-0.2,0.1-0.2,0.2-0.3,0.3c0,0.1,0,0.1,0,0.1c0,0,0,0,0,0c0,0,0,0,0,0.1c-0.2,0.2-0.3,0-0.2-0.4
			c-0.3,0-0.4,0.3-0.5,0.4c-0.3-0.2-0.9,0.2-1,0.3c0.3,0,0.5,0,0.6,0.4C52,80.8,52,81,51.9,81.1c0,0-0.1,0-0.1,0
			c-0.4-0.1-0.8,0.1-1.2,0.3c0.5,0,1.1,0.4,1.3,0.5c0,0,0,0,0,0c-0.4-0.1-1-0.1-1.1-0.2c0,0,0,0,0,0c0,0,0,0,0,0
			c0.3,0.2,0.6,0.5,0.9,0.7c0.2,0.2,0.5,0.4,0.7,0.5c0.1,0.1,0.6,0.4,0.7,0.4c-0.3,0-0.7-0.1-1-0.3c-0.1-0.1-0.3-0.1-0.3-0.1
			c0.8,0.7,1.2,0.9,1.3,0.9c0,0-0.3,0-0.3,0c0.1,0.1,0.4,0.1,0.4,0.3c0,0,0.1,0,0.1-0.1c0.2-0.1,0.5,0,0.8,0l0.2,0.2
			c0,0.1,0.1,0.1,0.1,0.2l-0.1,0.1c0,0.1,0.7,0.7,0.7,0.8c0.4-0.5,0.6,0.1,0.6,0.1c0,0,0.1,0,0.2,0l0.2,0.2c0,0.2,0.2,0.5,0.2,0.7
			c0,0,0,0.1,0,0.1c0.2,0,0.3,0.2,0.4,0.4c0,0-0.1-0.3-0.1-0.3c0.1,0.1,0.3,0.5,1.2,1c0,0-0.1-0.1-0.2-0.2c-0.3-0.3-0.5-0.6-0.6-0.9
			c0,0.1,0.4,0.5,0.5,0.6c0.2,0.2,0.4,0.4,0.7,0.6c0,0,0,0,0,0c0,0-0.1,0.1-0.1,0.1c0.1,0,0.1,0,0.2-0.1c0.1,0.1,0.2,0.1,0.3,0.2
			c-0.1,0-0.2,0.1-0.3,0.1c0,0,0,0,0,0c0,0,0,0,0,0c0.1,0,0.3,0.1,0.5,0.1c0.1,0.1,0.2,0.1,0.2,0.2c0,0,0,0,0,0c0,0,0,0,0,0
			c0,0,0-0.1-0.1-0.1c0.1,0,0.1,0,0.2,0.1c0,0.1,0.1,0.3,0,0.5c0,0.1,0,0.1,0,0.2c0.1-0.2,0.2-0.4,0.3-0.5c0.3,0.1,0.5,0.1,0.8,0.2
			c0.2,0,0.7,0.1,0.8,0.1c-0.3,0.1-0.7,0.2-1.1,0.1c-0.2,0-0.3,0-0.3,0c1,0.4,1.4,0.3,1.5,0.3c0,0-0.3,0.1-0.3,0.1
			c0.2,0,0.4,0,0.5,0.1c0,0,0-0.1,0.1-0.1c0.1-0.1,0.5-0.2,0.7-0.3l0.3,0.1c0.1,0,0.1,0.1,0.1,0.1L62.8,89c0,0.1,1,0.3,1,0.4
			c0.2-0.6,0.6-0.1,0.6-0.2c0,0,0.1-0.1,0.2-0.1l0.3,0.1c0.1,0.2,0.4,0.4,0.4,0.6c0,0,0,0.1,0,0.1c0.2-0.1,0.3,0.1,0.5,0.2
			c0,0-0.2-0.2-0.2-0.2c0.1,0.1,0.5,0.3,1.5,0.5c0,0-0.1-0.1-0.3-0.1c-0.3-0.1-0.7-0.3-0.9-0.6c0.1,0.1,0.6,0.3,0.7,0.3
			c0.3,0.1,0.5,0.2,0.8,0.3c0.1,0,0.2,0,0.3,0.1c0,0.1,0,0.1,0,0.2c0-0.1,0.1-0.1,0.2-0.1c0.1,0,0.2,0.1,0.3,0.1
			c-0.1,0.1-0.1,0.1-0.1,0.1c0,0,0,0,0,0c0,0,0,0,0,0c0.1,0,0.2,0,0.3-0.1c0.1,0,0.1,0,0.2,0c0,0,0,0,0,0c0,0,0,0,0,0
			c0,0-0.1,0-0.1-0.1c0.1,0,0.1,0,0.2,0c0.1,0.1,0.2,0.3,0.2,0.4c0,0.1,0,0.1,0,0.2c0-0.2,0-0.4,0.1-0.6c0.1,0,0.1,0,0.2,0
			c0.3-0.1,0.6-0.1,0.8-0.2c0.1-0.1,0.7-0.2,0.7-0.3c-0.2,0.3-0.5,0.5-0.9,0.6c-0.2,0.1-0.3,0.1-0.3,0.1c1-0.1,1.4-0.4,1.5-0.4
			c0,0-0.2,0.2-0.2,0.2c0.2,0,0.4-0.2,0.5-0.2c0,0,0-0.1,0-0.1c0.1-0.2,0.3-0.4,0.4-0.6l0.3-0.1c0.1,0,0.2,0,0.2,0.1l0,0.2
			c0,0.1,1-0.1,1.1-0.1c-0.2-0.6,0.4-0.4,0.4-0.4c0,0,0.1-0.1,0.2-0.2l0.3-0.1c0.2,0.1,0.5,0.2,0.7,0.3c0,0,0,0.1,0.1,0.1
			c0.1-0.1,0.4-0.1,0.5-0.1c0,0-0.3-0.1-0.3-0.1c0.1,0,0.6,0.1,1.5-0.3c0,0-0.1,0-0.3,0c-0.4,0-0.8,0-1.1-0.1c0.1,0.1,0.6,0,0.8-0.1
			c0.3,0,0.6-0.1,0.9-0.1c0,0,0.1,0,0.1,0c0,0.1,0,0.2,0.1,0.3c0-0.1,0.1-0.3,0.2-0.4c0.1,0,0.2-0.1,0.4-0.1
			c-0.1,0.2-0.2,0.4-0.2,0.4c0,0,0,0,0,0c0,0,0,0,0,0c0.2-0.2,0.5-0.3,0.7-0.5c0.1,0,0.1,0.1,0.2,0.1c0,0,0.1,0.1,0.1,0.1
			C79,88.3,79,88.1,78.9,88c0,0,0,0,0,0c0.2-0.2,0.5-0.4,0.7-0.5c0.1-0.1,0.5-0.4,0.6-0.6c-0.1,0.3-0.3,0.6-0.6,0.9
			c-0.1,0.1-0.2,0.2-0.2,0.2c0.9-0.5,1.2-0.9,1.2-1c0,0-0.1,0.3-0.1,0.3c0.1-0.1,0.2-0.3,0.4-0.3c0,0,0-0.1,0-0.1
			c0-0.2,0.2-0.5,0.2-0.7l0.2-0.2c0.1,0,0.2,0,0.2,0l0.1,0.2c0,0,0.9-0.5,1-0.5c-0.4-0.5,0.2-0.5,0.2-0.6c0,0,0-0.1,0.1-0.2l0.2-0.2
			c0.2,0,0.6,0,0.7,0.1c0,0,0.1,0,0.1,0.1c0.1-0.2,0.3-0.2,0.5-0.3c0,0-0.3,0-0.3,0c0.1,0,0.5-0.1,1.3-0.8c0,0-0.1,0-0.3,0.1
			c-0.3,0.2-0.7,0.3-1,0.3c0.1,0,0.6-0.3,0.7-0.4c0.3-0.1,0.5-0.3,0.7-0.5c0.3-0.2,0.6-0.5,0.9-0.7c0,0,0,0,0,0c0,0,0,0,0,0
			c-0.1,0-0.7,0.1-1.1,0.1c0,0,0,0,0,0C85.7,82.6,85.9,82.5,86.1,82.4z M57.4,82.5C57.4,82.5,57.3,82.5,57.4,82.5c0-0.1,0-0.1,0-0.1
			c0,0,0.1-0.1,0.1-0.1c0,0.1,0.1,0.3,0.2,0.4L57.4,82.5z M59,87.8c0-0.1-0.1-0.1-0.1-0.2c0,0,0.1,0,0.1,0c0,0,0.1,0.1,0.1,0.1
			c0,0,0,0,0,0C59.1,87.8,59.1,87.8,59,87.8z M64.8,86C64.8,86,64.7,86,64.8,86C64.7,86,64.7,86,64.8,86c0-0.1,0-0.2,0-0.3
			c0.1,0.1,0.2,0.2,0.3,0.3L64.8,86z M69.1,89.8C69.1,89.8,69.1,89.8,69.1,89.8C69.1,89.8,69.1,89.9,69.1,89.8
			C69,89.9,69,89.9,69.1,89.8C69,89.8,69.1,89.8,69.1,89.8z M67.9,89.8C67.9,89.8,67.9,89.8,67.9,89.8c0.1,0,0.1,0,0.2,0.1
			c0,0,0,0,0,0.1C68,89.9,67.9,89.8,67.9,89.8z M68.3,90.2c0,0,0.1-0.1,0.1-0.1c0,0,0,0,0,0c0.1,0,0.1,0.1,0.1,0.1
			c0,0-0.1,0.1-0.1,0.1C68.4,90.3,68.4,90.2,68.3,90.2z M73,86C72.9,86,72.9,86,73,86C72.9,86,72.9,86,73,86
			c-0.1-0.1-0.1-0.2-0.1-0.2c0.1,0,0.3,0.1,0.4,0.2L73,86z M77.5,87.8c0,0,0.1,0,0.1,0C77.6,87.9,77.6,87.9,77.5,87.8
			C77.5,87.9,77.5,87.9,77.5,87.8C77.5,87.9,77.5,87.9,77.5,87.8z M78.3,88.1c-0.1,0-0.1,0-0.2-0.1c0,0,0.1-0.1,0.1-0.1
			c0,0,0.1,0,0.1,0C78.3,88,78.3,88.1,78.3,88.1z M80.6,82.6C80.6,82.6,80.6,82.6,80.6,82.6c-0.1,0-0.1,0-0.1,0c0,0-0.1-0.1-0.1-0.2
			c0.1,0,0.3,0,0.5,0L80.6,82.6z"/>
	</g>
	<g id="L1_x24_C_x24_D_x24_belt">
		<path fill="#996841" d="M59.4,72.2c0,0,5.8,2.5,10,2.3c4.3-0.3,8.5-2.2,8.5-2.2l0.7,0.9c0,0-6.5,2.7-9.3,2.8
			c-2.6,0.1-8.6-0.5-10.5-3.1C58.7,72.8,59.4,72.2,59.4,72.2z"/>
		<path fill="#C49C2D" d="M69.1,74.3l-1,0.1c-0.6,0-1.1,0.5-1.1,1.1c0,0.5,0.6,1,1.2,0.9l1-0.1c0.6,0,1.1-0.5,1.1-1.1
			C70.3,74.7,69.8,74.2,69.1,74.3z M69.1,76.1l-0.9,0.1c-0.4,0-0.8-0.3-0.9-0.7c0-0.4,0.3-0.8,0.8-0.8l0.9-0.1
			c0.4,0,0.8,0.3,0.9,0.7C69.9,75.7,69.6,76,69.1,76.1z"/>
		<path fill="#C49C2D" d="M68.4,75.2c0.4,0.1,1.5,0,1.5,0l0,0.2l-1.5,0.1L68.4,75.2z"/>
	</g>
</g>
<g id="footwear">
	<g id="L2_x24_C_x24_D_x24_boots">
		<g>
			<path fill="#7C5A41" d="M80.2,103.3l3.6-1.3c0,0,0.1,3,0,8.1c0.2,0.2,0.8,1.1,1.6,2.8c0.8,1.5,1.9,3.5,2.3,4.9c0,0,0,0,0,0l0,0
				c0,0,0,0,0,0l0,0l-7.8-0.1l-1.4,0l-1-7l-2.4-7.4L80.2,103.3z"/>
			<g>
				<polygon fill="#3C2A1F" points="78.1,114.5 78.1,117.8 79.4,117.8 				"/>
				<path fill="#603813" d="M76.9,103.5l3.3-0.1l2.4-0.6l0.1,7.3c0,0,2.5,3.7,2.5,4.7c-0.3,0-0.6-0.2-0.9-0.2c-0.5,0-1,0.2-1,0.2
					l-3.4-4.7l-0.4,0.1L76.9,103.5z"/>
				<path fill="#3C2A1F" d="M87.8,117.9l-2-0.9h-1.6l-4.7,0.9C79.5,117.8,87.8,117.9,87.8,117.9z"/>
			</g>
			<path fill="#E5C3AC" d="M85.5,115.7c0,0,0.1-0.8-1-0.7c-0.5,0.1-0.2,0.7-0.2,0.7L85.5,115.7z"/>
			<g>
				<path fill="#7C5A41" d="M83.1,104.7l0.1,2.3c-0.6,1-3.8,1.3-4.7,1l-1.1-2.7C78.5,105.7,82.3,105.5,83.1,104.7z"/>
				<path fill="#7C5A41" d="M82.9,102.6l-0.1,1.1c-0.7,0.6-4.5,1.1-5.4,0.8l-0.5-0.9C78,103.6,82.1,103.1,82.9,102.6z"/>
				<path fill="#7C5A41" d="M83.8,110.7c0,0,0.1,0.4,0.7,1.4c-1.2-0.6-3,0-3,0.5c0,0-0.8-1.2-0.8-1.2
					C82,110.2,83.8,110.7,83.8,110.7z"/>
				<path fill="#7C5A41" d="M84.8,112.7c0.6,0.3,0.3,0.4,0.9,1.4c-1.2-0.9-2.8-0.2-2.9,0.3c0,0-0.9-1.3-0.9-1.3
					C82.2,112.9,83.7,112.1,84.8,112.7z"/>
				<path fill="#7C5A41" d="M80.4,109.4c1,0,2.1-0.7,2.9-1.3l0,2.2c-1.4-0.6-3.6,0.5-3.6,0.5l-1-1.7C79.2,109,80.2,109.4,80.4,109.4
					z"/>
			</g>
			<path opacity="0.2" fill="#262261" d="M84,110.4c-1.8-1.1-2.4-1.1-4.3-0.1c-0.3,0.1-1,1.2-2.1,0.8l-2.5-7.6l5-0.1l3.6-1.3
				c0,0,0.1,3,0,8.1C83.9,110.1,83.9,110.2,84,110.4z"/>
		</g>
		<g id="boots">
			<g>
				<path fill="#7C5A41" d="M57,103.2l-3.6-1.3c0,0-0.1,3,0,8.1c-0.2,0.2-0.8,1.1-1.6,2.8c-0.8,1.5-1.9,3.5-2.3,4.9c0,0,0,0,0,0l0,0
					c0,0,0,0,0,0l0,0l7.8-0.1l1.4,0l1-7l2.4-7.4L57,103.2z"/>
				<g>
					<polygon fill="#3C2A1F" points="59.2,114.5 59.2,117.8 57.9,117.8 					"/>
					<path fill="#603813" d="M60.3,103.4l-3.3-0.1l-2.4-0.6l-0.1,7.3c0,0-2.5,3.7-2.5,4.7c0.3,0,0.6-0.2,0.9-0.2c0.5,0,1,0.2,1,0.2
						l3.4-4.7l0.4,0.1L60.3,103.4z"/>
					<path fill="#3C2A1F" d="M49.5,117.8l2-0.9h1.6l4.7,0.9C57.8,117.8,49.5,117.8,49.5,117.8z"/>
				</g>
				<path fill="#E5C3AC" d="M51.8,115.7c0,0-0.1-0.8,1-0.7c0.5,0.1,0.2,0.7,0.2,0.7L51.8,115.7z"/>
				<g>
					<path fill="#7C5A41" d="M54.2,104.6l-0.1,2.3c0.6,1,3.8,1.3,4.7,1l1.1-2.7C58.8,105.7,55,105.4,54.2,104.6z"/>
					<path fill="#7C5A41" d="M54.4,102.6l0.1,1.1c0.7,0.6,4.5,1.1,5.4,0.8l0.5-0.9C59.2,103.6,55.2,103.1,54.4,102.6z"/>
					<path fill="#7C5A41" d="M53.5,110.7c0,0-0.1,0.4-0.7,1.4c1.2-0.6,3,0,3,0.5c0,0,0.8-1.2,0.8-1.2
						C55.3,110.2,53.5,110.7,53.5,110.7z"/>
					<path fill="#7C5A41" d="M52.5,112.7c-0.6,0.3-0.3,0.4-0.9,1.4c1.2-0.9,2.8-0.2,2.9,0.3c0,0,0.9-1.3,0.9-1.3
						C55.1,112.8,53.5,112,52.5,112.7z"/>
					<path fill="#7C5A41" d="M56.8,109.3c-1,0-2.1-0.7-2.9-1.3l0,2.2c1.4-0.6,3.6,0.5,3.6,0.5l1-1.7C58.1,109,57.1,109.3,56.8,109.3
						z"/>
				</g>
				<path opacity="0.2" fill="#262261" d="M53.2,110.3c1.8-1.1,2.4-1.1,4.3-0.1c0.3,0.1,1,1.2,2.1,0.8l2.5-7.6l-5-0.1l-3.6-1.3
					c0,0-0.1,3,0,8.1C53.4,110.1,53.3,110.2,53.2,110.3z"/>
			</g>
		</g>
	</g>
	<g id="L1_x24_C_x24_D_x24_furTopper">
		<path fill="#BFA181" d="M85.4,104.9c-0.2-0.4-0.4-0.7-0.9-0.9c0,0,0,0-0.1,0c0.1-0.2,0.1-0.3,0.1-0.5c0.4-0.3,0.5-0.2,0.8,0
			c0-0.1-0.3-0.8-0.7-0.8c0-0.1,0-0.4-0.2-0.6c-0.2,0.4-0.3,0.4-0.4,0.2c0,0,0,0,0-0.1c0,0,0,0,0,0c0,0,0,0,0.1-0.1
			c0-0.1,0-0.2-0.1-0.4c0,0,0,0.1,0,0.1c0,0.1-0.2,0.2-0.4,0.2c-0.1,0,0.3-0.3,0-0.7c-0.2,0.3-0.7,0.3-0.8,0.2c0,0,0-0.1-0.1-0.1
			c-0.1,0.1-0.4,0-0.5,0c0,0,0.2,0.2,0.2,0.2c-0.1-0.1-0.5-0.2-1.6,0c0,0,0.1,0,0.3,0.1c0.4,0,0.7,0.1,1,0.3l0,0
			c-0.2-0.1-0.9-0.2-0.8-0.1c0.9,0.7-0.5-0.1-0.9,0c-0.3,0.1-0.4,0.2-0.8-0.1c0,0-0.1,0.3,0.2,0.5l-0.3,0c0,0-0.1,0-0.1,0
			c0,0-0.3-0.1-0.5-0.5c0-0.1-0.1-0.1-0.1-0.2c0,0.1,0.1,0.3,0.1,0.4c-0.3,0.1-0.7,0.1-1,0.1c-0.3,0.1-0.6,0.1-0.9,0.2
			c-0.1,0-0.6,0.1-0.7,0.2l0,0c0.2-0.2,0.6-0.4,0.9-0.5c0.2,0,0.3-0.1,0.3-0.1c-1.1,0.1-1.5,0.3-1.6,0.4c0,0,0.2-0.2,0.2-0.2
			c-0.2,0-0.4,0.2-0.5,0.1c0,0-0.3,0.5-0.5,0.6c-0.1,0-0.1,0.1-0.2,0.1c-0.2,0-0.3,0.1-0.4-0.2c-0.2,0.4,0.1,0.5,0.1,0.5
			c0,0,0,0,0,0c0,0,0,0.3-0.1,0.4c-0.1,0.1-0.5-0.5-0.5-0.5c-0.2,0.3-0.1,1.1,0.3,1.2c0,0.1-0.4,0.4-0.2,0.7c0.1-0.3,0.4-0.1,0.4,0
			c0,0,0,0-0.1,0.1c-0.4,0.3-0.6,0.5-0.7,0.9c0,0.2,0,0.4,0,0.7c0-0.1,0.1-0.1,0.1-0.2c0.1-0.3,0.4-0.5,0.7-0.6
			c0.2-0.1,0.4-0.2,0.6-0.3c0,0,0,0,0,0c-0.3,0.2-0.9,0.6-1,0.7c0,0,0,0,0,0c0,0,0,0,0,0c0.4-0.1,0.8,0,1.2-0.1
			c0.3,0,0.6-0.1,0.9-0.1c0.2,0,0.7-0.1,0.8-0.2c-0.2,0.2-0.6,0.4-1,0.5c-0.2,0-0.3,0.1-0.3,0.1c1.1,0,1.5-0.2,1.6-0.2
			c0,0-0.2,0.2-0.2,0.2c0.2,0,0.4-0.2,0.5-0.1c0,0,0-0.1,0-0.1c0.1-0.2,0.4-0.4,0.5-0.6l0.3,0c0.1,0,0.2,0.1,0.2,0.1
			c0,0,0.5-0.4,0.5,0.3c0-0.1,1-0.2,1-0.3l0-0.2c0,0,0.1-0.1,0.2-0.1l0.3,0c0.2,0.2,0.5,0.3,0.6,0.4c0,0,0,0.1,0.1,0.1
			c0.1-0.1,0.4,0,0.5,0c0,0-0.3-0.2-0.3-0.2c0.1,0,0.6,0.2,1.6-0.1c0,0-0.1,0-0.3,0c-0.4,0-0.8-0.1-1.1-0.3c0.1,0.1,0.7,0,0.8,0.1
			c0.3,0,0.6,0,0.9,0c0.4,0,0.8-0.2,1.2-0.1c0,0,0,0,0,0c0,0,0,0,0,0c-0.1,0-0.7-0.3-1.1-0.5c0,0,0,0,0,0
			C84.2,104.7,85,104.6,85.4,104.9z M79.1,102.1C79,102.1,79,102.2,79.1,102.1l-0.4,0.1c0.1-0.1,0.3-0.2,0.4-0.3
			C79,102,79,102,79.1,102.1C79.1,102.1,79.1,102.1,79.1,102.1z"/>
		<path fill="#BFA181" d="M53,104.6C53,104.6,53,104.6,53,104.6c-0.4,0.2-1,0.5-1.1,0.5c0,0,0,0,0,0c0,0,0,0,0,0
			c0.4,0,0.8,0.1,1.2,0.1c0.3,0,0.6,0,0.9,0c0.2,0,0.7,0,0.8-0.1c-0.3,0.2-0.7,0.3-1.1,0.3c-0.2,0-0.3,0-0.3,0
			c1.1,0.2,1.5,0.1,1.6,0.1c0,0-0.3,0.2-0.3,0.2c0.2,0,0.4-0.1,0.5,0c0,0,0-0.1,0.1-0.1c0.1-0.2,0.5-0.3,0.6-0.4l0.3,0
			c0.1,0,0.1,0.1,0.2,0.1l0,0.2c0,0.1,1,0.2,1,0.3c0.1-0.7,0.5-0.2,0.5-0.3c0,0,0.1-0.1,0.2-0.1l0.3,0c0.1,0.2,0.4,0.4,0.5,0.6
			c0,0,0,0.1,0,0.1c0.2-0.1,0.4,0.1,0.5,0.1c0,0-0.2-0.2-0.2-0.2c0.1,0.1,0.5,0.3,1.6,0.2c0,0-0.1-0.1-0.3-0.1
			c-0.4-0.1-0.7-0.2-1-0.5c0.1,0.1,0.6,0.2,0.8,0.2c0.3,0.1,0.6,0.1,0.9,0.1c0.4,0,0.8,0,1.2,0.1c0,0,0,0,0,0c0,0,0,0,0,0
			c-0.1,0-0.6-0.4-1-0.7c0,0,0,0,0,0c0.2,0.1,0.4,0.2,0.6,0.3c0.3,0.1,0.6,0.4,0.7,0.6c0,0.1,0.1,0.1,0.1,0.2c0-0.2,0-0.4,0-0.7
			c-0.1-0.4-0.3-0.6-0.7-0.9c0,0,0,0-0.1-0.1c0.1-0.1,0.3-0.2,0.4,0c0.2-0.3-0.2-0.6-0.2-0.7c0.4-0.2,0.5-0.9,0.3-1.2
			c0,0-0.4,0.5-0.5,0.5c-0.1,0-0.1-0.4-0.1-0.4c0,0,0,0,0,0c0,0,0.3-0.1,0.1-0.5c-0.1,0.3-0.3,0.2-0.4,0.2c-0.1-0.1-0.1-0.1-0.2-0.1
			c-0.1-0.2-0.4-0.6-0.5-0.6c-0.2,0.1-0.4-0.1-0.5-0.1c0,0,0.2,0.2,0.2,0.2c-0.1-0.1-0.5-0.3-1.6-0.4c0,0,0.1,0.1,0.3,0.1
			c0.3,0.1,0.7,0.3,0.9,0.5l0,0c-0.1-0.1-0.6-0.2-0.7-0.2c-0.3-0.1-0.6-0.2-0.9-0.2c-0.3-0.1-0.7-0.1-1-0.1c0-0.1,0-0.3,0.1-0.4
			c0,0.1-0.1,0.1-0.1,0.2c-0.3,0.4-0.5,0.4-0.5,0.5c0,0-0.1,0-0.1,0l-0.3,0c0.3-0.1,0.2-0.5,0.2-0.5c-0.4,0.3-0.5,0.2-0.8,0.1
			c-0.4-0.1-1.8,0.7-0.9,0c0.1-0.1-0.6,0-0.8,0.1l0,0c0.3-0.2,0.6-0.3,1-0.3c0.2,0,0.3-0.1,0.3-0.1c-1.1-0.1-1.5,0-1.6,0
			c0,0,0.3-0.2,0.2-0.2c-0.2,0-0.4,0.1-0.5,0c0,0,0,0.1-0.1,0.1c-0.1,0.1-0.6,0.1-0.8-0.2c-0.3,0.4,0.1,0.7,0,0.7
			c-0.2,0-0.4-0.1-0.4-0.2c0,0,0-0.1,0-0.1c-0.1,0.2-0.1,0.3-0.1,0.4c0,0.1,0.1,0.1,0.1,0.1c0,0,0,0,0,0c0,0,0,0,0,0.1
			c-0.1,0.2-0.2,0.1-0.4-0.2c-0.2,0.2-0.2,0.5-0.2,0.6c-0.4,0-0.6,0.7-0.7,0.8c0.2-0.2,0.4-0.3,0.8,0c0,0.2,0,0.3,0.1,0.5
			c0,0,0,0-0.1,0c-0.4,0.2-0.7,0.5-0.9,0.9C52,104.6,52.8,104.7,53,104.6z M58,102.1c0-0.1,0-0.1,0-0.2c0.1,0.1,0.2,0.2,0.4,0.3
			L58,102.1C58,102.2,58,102.1,58,102.1C58,102.1,58,102.1,58,102.1z"/>
	</g>
</g>
<g id="hair_1_">
	<g id="D_x24_C_x24_wave" display="none">
		<path display="inline" fill="#C07F00" d="M72.4,39.2c2.1,0.7,4.8,3.4,5.3,6.9c0.3,2,2,2.4,0.6,4.6c-0.9,1.3,1.2,2,0.3,4
			c-0.4,1-1.5,1.5-1.3,2.7c0.2,0.7,0.8,1.7,3,1.6c-2.6,1.6-5,0.8-5.8,0c-1-1-1.8-2.5-0.4-4.1c1.5-1.7,1.6-3.6,2.1-5.6
			c0.1-0.5-0.1-1.4-0.2-2c-0.2-0.8-0.3-1.3-0.7-2.1c-1.7-0.4-2.1-2.5-2.2-2.4c-4,1.9-4.4,3.6-10.7,3.6c-0.4,0-1.3,2.5-0.1,4.4
			c1,1.5,1.2,2.4,0.6,3.8c-0.4,0.9-1.6,1.8-2.9,2.5c-3.2,1.9,5,7.7-1.2,9.5c2.6-3.4-4-3.5-1.5-6.5c0.8-0.9,0.3-1.6,0.1-2.1
			c-0.4-1.2-1.3-1.4-0.5-2.4c0.5-0.6,1.5-1,0.7-2.4S57.4,51,58.3,50c0.6-0.7-0.9-1.6-0.1-3c0.4-0.8,1.3-1.1,1.6-2.3
			c0.6-2.2,1.5-3.6,3.1-4.8C66.1,37.9,69.4,38.1,72.4,39.2z"/>
		<path display="inline" opacity="0.43" fill="#FCE300" d="M60.8,55.1c-0.8-0.1-1.6-0.2-2.4-0.3c-0.1,0.5-0.6,0.7-1,1.1
			c-0.2,0.3-0.3,0.5-0.3,0.7c1.3-0.5,1.7-0.3,2.3,0.3C59.6,56.3,60.1,55.6,60.8,55.1z"/>
		<path display="inline" opacity="0.43" fill="#FCE300" d="M60.8,62.1c-0.3-0.7-0.7-1.4-1-2.1c-0.6-0.1-1.3-0.2-1.9-0.2
			c-0.1,0.2-0.2,0.3-0.3,0.5c-0.5,0.6-0.7,1.1-0.6,1.5c0.5,0,0.1-0.7,1.5-0.6S60,62,60.8,62.1z"/>
		<path display="inline" opacity="0.43" fill="#FCE300" d="M65.5,39.2c-1.8,0.9-2.5,2.7-3.4,4.1c1.2-1,2.5-1.8,3.7-2.3
			c1.8-0.8,4-1.2,6.1-1.9c-0.8-0.2-1.6-0.4-2.4-0.5C68.1,38.8,67.3,38.3,65.5,39.2z"/>
		<path display="inline" opacity="0.43" fill="#FCE300" d="M72.1,40.1c-2.4,0.8-5.1,0.6-7.4,1.9c-1.9,1-3.7,2.6-4.2,4.8
			c0.7-1.9,2.7-2.8,4.9-3.4c3.3-0.9,5.7-1.6,7.9-3.6c0,0-0.1,0-0.1-0.1C72.9,39.8,72.5,39.9,72.1,40.1z"/>
		<path display="inline" opacity="0.43" fill="#FCE300" d="M70.9,42.9c-2.3,0.8-6.6,0.2-8.6,2.9c0.8-0.6,1.4-0.1,2.5-0.3
			c2.9-0.6,4.9-1.4,6.9-3.1C71.4,42.6,71.2,42.8,70.9,42.9z"/>
		<path display="inline" opacity="0.43" fill="#FCE300" d="M77.4,45.8c-0.4-2-1.6-3.8-2.9-5C73.3,43.4,76,44.3,77.4,45.8z"/>
		<g display="inline" opacity="0.2">
			<path fill="#262261" d="M74.2,55.1c-1.4,1.6-0.7,3.1,0.4,4.1c0.4,0.4,1,0.7,1.9,0.8c0.7-0.1,1.3-0.3,1.8-0.7c0,0,0,0-0.1,0
				c-0.5,0.1-1,0-1.4-0.2c-1.2-0.6-1.5-1.9-1.1-3.1c0.1-0.3,0.2-0.6,0.4-0.9c0.1-0.2,0.2-0.4,0.2-0.6l0,0c0.5-3.3,0.9-6.5-0.6-9.6
				c-0.4-0.2-0.7-0.5-1-0.9c-0.6-0.8-0.9-1.8-1.2-2.8c-1,1.2-2.5,2.2-3.8,2.9c-2.3,1.3-5,1.7-7.6,2c0,0.1-0.1,0.2-0.2,0.3
				c-1.6,2.2,0.3,4.6-0.1,6.9c-0.2,1.3-1.1,2-1.7,3c-0.7,1.2-0.9,1.9-0.7,3.1h0.1c-0.3-0.9-0.3-1.7,0.6-2.2c1.3-0.8,2.5-1.6,2.9-2.5
				c0.6-1.4,0.4-2.3-0.6-3.8c-1.2-1.9-0.3-4.4,0.1-4.4c6.3,0,6.7-1.7,10.7-3.6c0.1,0,0.5,2.1,2.2,2.4c0.4,0.8,0.5,1.3,0.7,2.1
				c0.1,0.5,0.3,1.5,0.2,2C75.9,51.6,75.7,53.4,74.2,55.1z"/>
		</g>
	</g>
	<g id="C_x24_long_1_">
		<path id="C_x24_long" fill="#37423C" d="M77.1,54c0-1,0.9-4.3,0-7.2c-0.7-2.1,0-8.6-9.3-8.2c-4.3,0-6.2,2.3-7.7,5.4
			c-0.5,1,0.4,2.5-0.8,3c-1,0.5-0.5,1.2,0.2,2.1c-2.2,0.9,2.2,4.7-1.6,6.5c-0.1,0.1-2.8,2.4-1.7,3.3c1.2,3-2.6,4.1-3.2,2.6
			c0.3,1,0.9,1.2,2.1,0.9c1-0.2,1.4-0.4,1.7-0.8c-0.3,1.9,0.8,5.5,4.3,5c0.1,0-2.2-0.6-1.8-2.1c-0.4-0.5,2.7-2,2.8-2.7
			c0.1-0.6,0.1-1-0.4-1.5c0.4,0,0.9,0.1,1.4,0.1c-2.9-1-2.6-2.2-2.4-2.4c0,0-0.3,1.6,4.1,1.5c0,0,0,0,0,0c-1.2-0.3-2.1-1-1.5-1.7
			c0.1-0.1,0.2-0.2,0.3-0.3c1.1-1.2,1.1-2.6,0.1-3.6c-2.5-2.3-3.4-5.4-0.5-7.7c0.5-0.4,2.6-2.1,2.4-2.4c0.9,1.4,3,1.5,5.2,2
			c1.1,0.3,3,0.5,4,1c1.2,0.5,0.3,3.3,0.2,3.9c-0.6,4.4-3.6,2.1-2.4,7.5c0.2,0.8-1.2,1.8-0.8,2.5c0.4,0.7,0.3,0.6,1.3,1.4
			c-0.2-1.4,0.4-2,1-2.2c-0.5,0.5-0.5,1-0.4,1.7c0.1,0.5,0.9,0.9,1.6,1.2c0.2,0.5,0.6,1.5-0.3,2c1-0.1,1.5-1.4,1.8-1.8
			c1.4,0.5,0.6,2.3,0.4,2.6c-0.3,0.5-1.7,0.7-1.6,0.7c3.4,0.5,4.3-3.8,3.7-5.8c-0.1-0.5-0.2-0.9-0.2-1.3c0.8,0.5,1.1,1.6,0.7,2.7
			c0,0,2-2.1,1.9-2.9C81.5,56.4,78.1,54.7,77.1,54z"/>
	</g>
</g>
<g id="overWear">
	<g id="L2_x24_C_x24_cape">
		<path fill="#7B0A00" d="M47.2,87.9c-1,11-2,26.1-4.5,29.9h11l-4-35.4c0,0-0.3,0.5-1.1,2.1c0.2,0.2,0,0.7-0.1,1.1
			c-0.1,0.3-0.3,0.5-0.3,0.5C48.1,86.4,47.6,87.2,47.2,87.9z"/>
		<path opacity="0.2" fill="#262261" d="M83.4,73.5c-0.1-0.8-4.8-10.6-3.9-11.3c0.8-0.7,4-2,7.5,6.5c-0.8-3.6-1.8-7.4-1.8-7.4
			s-4-5.3-9.1-2.6c6.2-6.6-0.8-16.8-7.7-18.1c-6.8,1.1-13,15.3-7.2,18.1c-5.1-2.7-9.1,2.6-9.1,2.6s-1,3.8-1.8,7.4
			c3.5-8.5,6.7-7.2,7.5-6.5c0.9,0.7-3.8,10.5-3.9,11.3c-0.4,3.9-3.6,6-4.1,9c1.3,12.8-0.2,22-0.9,35.3c1.2,0,3.9,0,4.8,0
			c7.2,0,7.8-56.4,15-56.6c7.2,0.2,7.5,56.4,14.7,56.4c1.3,0,3.2,0,4.8,0c-0.5-10.3-1.9-23-0.6-34.9C86.8,80.7,84,77.2,83.4,73.5z
			 M75.6,53.5c-0.4,3.9-3.7,6-6.9,6.2c-3.1-0.4-6.6-2.2-6.6-6.2s3.1-10.1,6.4-10.1C71.7,43.3,76.1,48.6,75.6,53.5z"/>
		<path fill="#7B0A00" d="M47.2,87.9c-1,11-2,26.1-4.5,29.9h11l-4-35.4c0,0-0.3,0.5-1.1,2.1c0.2,0.2,0,0.7-0.1,1.1
			c-0.1,0.3-0.3,0.5-0.3,0.5C48.1,86.4,47.6,87.2,47.2,87.9z"/>
		<path fill="#7B0A00" d="M88.4,84.5c-0.2,0.2-0.1,0.6,0.1,1.1c0.2,0.3,0.2,0.4,0.8,1.3c1,11.1,2,27,4.6,30.9h-11L87,81.7L88.4,84.5
			z"/>
		<path fill="#7B0A00" d="M79,54.5c0.6-2.1,2.2-7.1,1.2-8.4c-0.8-0.8-1.6-0.5-2.4-1.5c-1.6-4.6-4.9-6.8-10-6.6
			c-4.5-0.1-6.7,2.6-8.4,6.6c-0.7,0.9-2,0.7-2.6,1.2c-1.2,2.6,0.9,7.5,1,8.7c-1,0.2-4.2,2-5.2,3.2s-1.9,7.4-2.7,11.6
			c0.3-0.4,0.8-2.1,1-2.5c0.5-1.2,0.4-4.9,2.2-5.9c3-1.7,12.3,2.6,14.4-0.9c-4.5-1.2-8.2-1.7-7.3-7.2c1.3-8.5,8-11.3,8-11.3
			c0,0,8.9,4.2,8.5,11.1c-0.3,5.5-2.7,6.2-7.2,7.5c2.1,3.5,10.9-0.9,13.9,0.8c1.8,1,2.2,5.6,2.7,6.8c0.2,0.4,1,2.6,1.3,3.5
			c-0.6-4.5-2.2-12.2-3.3-13.7S80.1,54.7,79,54.5z"/>
		<linearGradient id="SVGID_5_" gradientUnits="userSpaceOnUse" x1="68.7195" y1="19.3333" x2="68.7195" y2="59.0224">
			<stop  offset="0" style="stop-color:#FFFFFF"/>
			<stop  offset="1" style="stop-color:#FFFFFF;stop-opacity:0"/>
		</linearGradient>
		<path opacity="0.58" fill="url(#SVGID_5_)" d="M79,54.5c0.6-2.1,2.2-7.1,1.2-8.4c-0.8-0.8-1.6-0.5-2.4-1.5
			c-1.6-4.6-4.9-6.8-10-6.6c-4.5-0.1-6.7,2.6-8.4,6.6c-0.7,0.9-2,0.7-2.6,1.2c-1.2,2.6,0.9,7.5,1,8.7c-1,0.2-4.2,2-5.2,3.2
			s-1.9,7.4-2.7,11.6c0.3-0.4,0.8-2.1,1-2.5c0.5-1.2,0.4-4.9,2.2-5.9c3-1.7,12.3,2.6,14.4-0.9c-4.5-1.2-8.2-1.7-7.3-7.2
			c1.3-8.5,8-11.3,8-11.3c0,0,8.9,4.2,8.5,11.1c-0.3,5.5-2.7,6.2-7.2,7.5c2.1,3.5,10.9-0.9,13.9,0.8c1.8,1,2.2,5.6,2.7,6.8
			c0.2,0.4,1,2.6,1.3,3.5c-0.6-4.5-2.2-12.2-3.3-13.7S80.1,54.7,79,54.5z"/>
		<path opacity="0.2" fill="#262261" d="M83.3,73.5c-0.1-0.8-4.8-10.6-3.9-11.3c0.8-0.7,4-2,7.5,6.5c-0.8-3.6-1.8-7.4-1.8-7.4
			s-4-5.3-9.1-2.6c6.2-6.6-0.8-16.8-7.7-18.1c-6.8,1.1-13,15.3-7.2,18.1C56,56.1,52,61.4,52,61.4s-1,3.8-1.8,7.4
			c3.5-8.5,6.7-7.2,7.5-6.5c0.9,0.7-3.8,10.5-3.9,11.3c-0.4,3.9-3.6,6-4.1,9c1.3,12.8-0.2,21.9-1,35.3c0.9,0,39.3,0,39.3,0
			S86.2,94.9,87.5,83C86.8,81.3,82.1,72.9,83.3,73.5z M75.5,53.5c-0.4,3.9-3.7,6-6.9,6.2c-3.1-0.4-6.6-2.2-6.6-6.2
			s3.1-10.1,6.4-10.1C71.6,43.4,76,48.6,75.5,53.5z"/>
	</g>
	<g id="L1_x24_C_x24_leafClasp">
		<path fill="#FCDF54" d="M67.7,62.9c-0.2,0-0.3-0.1-0.5-0.1c-0.7-0.3-0.8-2.4-0.9-2.6l0-0.1l0,0c0,0,0.9-1.1,1.4-1.2
			c0.2-0.1,0.4-0.1,0.7,0c0.6,0.1,1.4,0.3,1.4,0.3l0.3,0.1L69.2,60c0.1,0,0.1,0,0.2,0c0.4,0.1,0.8,0.1,1.1,0.2c0.7,0.2,2,0.9,2,1
			l0.3,0.2l-0.3,0.1c-0.1,0-2.4,0.8-3.2,0.7l-0.1,0c-0.4,0-0.7-0.1-0.9-0.2l0.3,0.7l-0.1,0.1C68.4,62.8,68.1,62.9,67.7,62.9z"/>
		<path opacity="0.63" fill="#421115" d="M67.7,62.9c-0.2,0-0.3-0.1-0.5-0.1c-0.7-0.3-0.8-2.4-0.9-2.6l0-0.1l0,0
			c0,0,0.9-1.1,1.4-1.2c0.2-0.1,0.4-0.1,0.7,0c0.6,0.1,1.4,0.3,1.4,0.3l0.3,0.1L69.2,60c0.1,0,0.1,0,0.2,0c0.4,0.1,0.8,0.1,1.1,0.2
			c0.7,0.2,2,0.9,2,1l0.3,0.2l-0.3,0.1c-0.1,0-2.4,0.8-3.2,0.7l-0.1,0c-0.4,0-0.7-0.1-0.9-0.2l0.3,0.7l-0.1,0.1
			C68.4,62.8,68.1,62.9,67.7,62.9z"/>
		<path fill="#FCDF54" d="M67.3,62.6c-0.6-0.3-0.8-2.5-0.8-2.5s0.8-1,1.4-1.2c0.5-0.2,2,0.3,2,0.3l-1.1,0.8c0,0,1,0,1.7,0.3
			c0.7,0.2,2,1,2,1s-2.4,0.8-3.1,0.7C68.6,62,68,61.8,68,61.8l0.3,0.9C68.4,62.6,67.9,62.9,67.3,62.6z"/>
		<path opacity="0.3" fill="#421115" d="M67.8,62.6c-0.1,0-0.3-0.1-0.4-0.1c-0.4-0.2-0.6-1.5-0.7-2.3c0.2-0.3,0.9-1,1.3-1.1
			c0.1,0,0.3,0,0.6,0c0.4,0,0.8,0.1,1,0.2l-1.2,0.9l0.4,0c0,0,0.3,0,0.6,0.1c0.4,0.1,0.8,0.1,1,0.2c0.5,0.2,1.2,0.6,1.7,0.8
			c-0.8,0.3-2.2,0.7-2.7,0.6l-0.1,0c-0.6-0.1-1.2-0.3-1.2-0.3l-0.3-0.1l0.5,1.1C68.2,62.6,68,62.6,67.8,62.6z"/>
		<path opacity="0.3" fill="#421115" d="M66.7,60.2l2.8-0.9C69.6,59.3,67.9,59.5,66.7,60.2z"/>
		<path opacity="0.3" fill="#421115" d="M66.7,60.2c0,0,0.9,1.1,5.4,1.1C70.6,61.1,67.3,60.7,66.7,60.2z"/>
		<path opacity="0.3" fill="#421115" d="M66.7,60.3c0,0,0.3,1.7,1.5,2.3C67.2,61.6,66.7,60.3,66.7,60.3z"/>
		<path fill="#FCDF54" d="M66.8,60.4l0.2,0.4l0.1-0.1c0,0,0.2,0.3,0.3,0.4c0.1-0.2,0.2-0.3,0.2-0.3S66.9,60.4,66.8,60.4
			C66.7,60.3,66.8,60.4,66.8,60.4z"/>
		<path fill="#FCDF54" d="M67.1,60.9L67.1,60.9l0.6,0.6l-0.3,0C67.4,61.5,67.2,61.2,67.1,60.9z"/>
		<path fill="#FCDF54" d="M67.5,61.6l0.3,0l0.4,0.9C68.1,62.4,67.7,61.9,67.5,61.6z"/>
		<path fill="#FCDF54" d="M67.5,61.1c0,0,0.2,0.3,0.5,0.4c0.3,0.1,0.7,0.2,0.7,0.2L68.6,61c0,0-0.2-0.1-0.4-0.1
			c-0.1,0-0.1,0.2-0.1,0.4c-0.1-0.1,0-0.4-0.1-0.4c-0.2-0.1-0.4-0.1-0.4-0.1C67.6,60.8,67.5,61.1,67.5,61.1z"/>
		<path fill="#FCDF54" d="M68.7,61.1l0.1,0.7c0,0,0.5,0.1,0.7,0.1c0.2,0,0.2,0,0.2,0s-0.3-0.4-0.4-0.7C69,61.1,68.7,61.1,68.7,61.1z
			"/>
		<path fill="#FCDF54" d="M69.4,61.2c0,0,0.2,0.5,0.4,0.6c0.2,0,1.1-0.2,1.1-0.2l-0.4-0.3C70.4,61.3,69.5,61.2,69.4,61.2z"/>
		<polygon fill="#FCDF54" points="70.7,61.3 71,61.6 71.7,61.3 		"/>
		<path fill="#FCDF54" d="M66.9,60c0,0,0.8-0.4,1.1-0.4c0-0.2,0-0.4,0-0.4S67.4,59.5,66.9,60z"/>
		<path fill="#FCDF54" d="M68.1,59.2l0,0.4l0.7-0.1l0-0.1l0.1-0.1C68.9,59.2,68.5,59.1,68.1,59.2z"/>
		<polygon fill="#FCDF54" points="69,59.3 68.9,59.4 69.3,59.3 		"/>
	</g>
</g>
<g id="weaponRight">
	<g id="longSwordRight" display="none">
		
			<rect x="42.9" y="84.2" transform="matrix(0.7726 -0.6349 0.6349 0.7726 -45.9443 47.916)" display="inline" fill="#D0A92B" width="2" height="7.7"/>
		<g display="inline">
			<path fill="#A8ABAD" d="M42,83.4l-2.4,2L12.4,52.3c0,0-5.1-6.3-4.5-7.9c1.6-0.2,6.9,5.9,6.9,5.9L42,83.4z"/>
			<path fill="#D5D8DA" d="M7.9,44.4c-0.6,1.7,4.5,7.9,4.5,7.9l27.2,33.1l1.2-1L7.9,44.4z"/>
		</g>
		<path display="inline" fill="#D0A92B" d="M36.7,85.6c0,0-0.1-0.9,3.1-2.5c2.1-2.8,3.1-2.7,3.1-2.7s3.8,1.3-1,5.2
			C37,89.6,36.7,85.6,36.7,85.6z"/>
		<path display="inline" fill="#B49330" d="M42.1,80.1c0,0,1.9,0.6-0.3,2.9c-0.3,0.3,0.5,2.2,0,2.6c-0.5,0.4-2.2-0.7-2.6-0.5
			c-2.7,1.7-2.6-0.5-2.6-0.5s-0.9,4,1.8,3.2c0-0.4,0.2-0.9,0.6-1.3c0.6-0.5,2.3,0.6,2.8,1c0.8,0.3,1.6,0.4,1.9,0.1
			c0.5-0.4,0.4-1.2,0.3-2c-0.3-0.5-0.9-2.5-0.3-3c0.4-0.3,0.8-0.4,1.2-0.4C45.8,80.1,42.1,80.1,42.1,80.1z"/>
		<path display="inline" fill="#FFD144" d="M43.5,87.6c-0.2,0.2-0.9,0.1-1.7-0.2c-0.5-0.4-2.3-1.6-3-1c-0.4,0.3-0.7,0.8-0.7,1.3
			c-0.5,0.1-0.8,0-1.1-0.2c-0.4-0.4-0.5-1.2-0.4-1.9c0.1,0.1,0.2,0.2,0.3,0.3c0.5,0.3,1.3,0.1,2.4-0.5c0.1,0,0.6,0.1,0.9,0.3
			c0.7,0.3,1.3,0.5,1.7,0.2c0.4-0.3,0.2-1,0.1-1.7c-0.1-0.3-0.2-0.8-0.1-0.9c0.9-1,1.3-1.8,1.1-2.4c0-0.1-0.1-0.3-0.2-0.4
			c0.6,0.1,1.4,0.3,1.7,0.8c0.2,0.3,0.2,0.6,0.1,1c-0.4,0-0.8,0.1-1.2,0.4c-0.7,0.6-0.1,2.7,0.2,3.3l0,0.1
			C43.8,86.7,43.9,87.3,43.5,87.6z"/>
		
			<ellipse transform="matrix(0.7726 -0.6349 0.6349 0.7726 -44.038 44.7277)" display="inline" fill="#7B6528" cx="40.4" cy="83.8" rx="1.4" ry="1"/>
		
			<ellipse transform="matrix(0.7726 -0.6349 0.6349 0.7726 -44.038 44.7277)" display="inline" fill="#A38634" cx="40.4" cy="83.8" rx="0.8" ry="1.2"/>
		
			<ellipse transform="matrix(0.7726 -0.6349 0.6349 0.7726 -44.0379 44.7277)" display="inline" fill="#7951A0" cx="40.4" cy="83.8" rx="0.6" ry="1"/>
		<path display="inline" fill="#B49330" d="M47.6,91.4l-1.1,0.9c-0.3,0.3-0.9,0.2-1.1-0.1L45,91.9c-0.3-0.3-0.2-0.9,0.1-1.1l1.1-0.9
			c0.3-0.3,0.9-0.2,1.1,0.1l0.3,0.4C48,90.6,48,91.1,47.6,91.4z"/>
		<path display="inline" fill="#EDD692" d="M45,91.9c-0.3-0.3-0.2-0.9,0.1-1.1l1.1-0.9c0.3-0.3,0.9-0.2,1.1,0.1
			C46.5,90.2,45.3,91.1,45,91.9z"/>
	</g>
</g>
<g id="weaponLeft">
	<g id="longSwordLeft" display="none">
		
			<rect x="91.9" y="84.2" transform="matrix(-0.7726 -0.6349 0.6349 -0.7726 108.6928 215.1115)" display="inline" fill="#D0A92B" width="2" height="7.7"/>
		<g display="inline">
			<path fill="#A8ABAD" d="M94.8,83.4l2.4,2l27.2-33.1c0,0,5.1-6.3,4.5-7.9c-1.6-0.2-6.9,5.9-6.9,5.9L94.8,83.4z"/>
			<path fill="#D5D8DA" d="M128.8,44.4c0.6,1.7-4.5,7.9-4.5,7.9L97.2,85.4l-1.2-1L128.8,44.4z"/>
		</g>
		<path display="inline" fill="#D0A92B" d="M100.1,85.6c0,0,0.1-0.9-3.1-2.5c-2.1-2.8-3.1-2.7-3.1-2.7s-3.8,1.3,1,5.2
			C99.8,89.6,100.1,85.6,100.1,85.6z"/>
		<path display="inline" fill="#B49330" d="M94.7,80.1c0,0-1.9,0.6,0.3,2.9c0.3,0.3-0.5,2.2,0,2.6c0.5,0.4,2.2-0.7,2.6-0.5
			c2.7,1.7,2.6-0.5,2.6-0.5s0.9,4-1.8,3.2c0-0.4-0.2-0.9-0.6-1.3c-0.6-0.5-2.3,0.6-2.8,1c-0.8,0.3-1.6,0.4-1.9,0.1
			c-0.5-0.4-0.4-1.2-0.3-2c0.3-0.5,0.9-2.5,0.3-3c-0.4-0.3-0.8-0.4-1.2-0.4C91,80.1,94.7,80.1,94.7,80.1z"/>
		<path display="inline" fill="#FFD144" d="M93.3,87.6c0.2,0.2,0.9,0.1,1.7-0.2c0.5-0.4,2.3-1.6,3-1c0.4,0.3,0.7,0.8,0.7,1.3
			c0.5,0.1,0.8,0,1.1-0.2c0.4-0.4,0.5-1.2,0.4-1.9c-0.1,0.1-0.2,0.2-0.3,0.3c-0.5,0.3-1.3,0.1-2.4-0.5c-0.1,0-0.6,0.1-0.9,0.3
			c-0.7,0.3-1.3,0.5-1.7,0.2c-0.4-0.3-0.2-1-0.1-1.7c0.1-0.3,0.2-0.8,0.1-0.9c-0.9-1-1.3-1.8-1.1-2.4c0-0.1,0.1-0.3,0.2-0.4
			c-0.6,0.1-1.4,0.3-1.7,0.8c-0.2,0.3-0.2,0.6-0.1,1c0.4,0,0.8,0.1,1.2,0.4c0.7,0.6,0.1,2.7-0.2,3.3l0,0.1
			C93,86.7,92.9,87.3,93.3,87.6z"/>
		
			<ellipse transform="matrix(0.6349 -0.7726 0.7726 0.6349 -29.5853 105.0555)" display="inline" fill="#7B6528" cx="96.4" cy="83.8" rx="1" ry="1.4"/>
		
			<ellipse transform="matrix(0.6349 -0.7726 0.7726 0.6349 -29.5853 105.0555)" display="inline" fill="#A38634" cx="96.4" cy="83.8" rx="1.2" ry="0.8"/>
		
			<ellipse transform="matrix(0.6349 -0.7726 0.7726 0.6349 -29.5853 105.0555)" display="inline" fill="#7951A0" cx="96.4" cy="83.8" rx="1" ry="0.6"/>
		<path display="inline" fill="#B49330" d="M89.2,91.4l1.1,0.9c0.3,0.3,0.9,0.2,1.1-0.1l0.3-0.4c0.3-0.3,0.2-0.9-0.1-1.1l-1.1-0.9
			c-0.3-0.3-0.9-0.2-1.1,0.1l-0.3,0.4C88.8,90.6,88.8,91.1,89.2,91.4z"/>
		<path display="inline" fill="#EDD692" d="M91.8,91.9c0.3-0.3,0.2-0.9-0.1-1.1l-1.1-0.9c-0.3-0.3-0.9-0.2-1.1,0.1
			C90.3,90.2,91.5,91.1,91.8,91.9z"/>
	</g>
</g>
<g id="base">
	<g id="D_x24_halfCircle">
		<path id="halfCircle" d="M100.4,117.8c0,17.6-14.3,31.9-31.9,31.9s-31.9-14.3-31.9-31.9C36.6,117.8,100.4,117.8,100.4,117.8z"/>
	</g>
	<g id="peg_2_">
		<rect id="peg_3_" x="40.3" y="117.8" fill="#3F3F40" width="56.7" height="8.5"/>
	</g>
</g>
<g id="G_x24_fingers">
	<g id="D_x24_K_x24_rightFingers">
		<path fill="#E8B180" d="M45,91.8c0,0,0.8-0.8,1.4-1.8c0.3-0.5,0.5-0.8,0.4-1.4c-0.5-0.8-1.2-0.1-1.2-0.1s0.6-0.8,0.3-1.4
			C45.6,86.5,45,87,45,87s0.2-0.6-0.1-1c-0.3-0.4-0.9-0.2-0.9-0.2s0-0.5-0.5-0.5c-0.3-0.6-3.2,2-3.2,2l0.2,1.2l1.8,2.5L45,91.8z"/>
		
			<linearGradient id="SVGID_6_" gradientUnits="userSpaceOnUse" x1="46.5812" y1="66.1482" x2="41.5812" y2="61.5232" gradientTransform="matrix(1 0 0 -1 0 152)">
			<stop  offset="0" style="stop-color:#BE1E2D"/>
			<stop  offset="0.9981" style="stop-color:#BE1E2D;stop-opacity:0"/>
		</linearGradient>
		<path opacity="0.55" fill="url(#SVGID_6_)" enable-background="new    " d="M45,90.8c-1.2-0.7-2.7-2-3.3-3.4
			c-0.3-0.2-0.7-0.3-0.9-0.6l-0.1,0.1c-0.3,1.2,1.3,3.5,2,3.8c0.5,0.3,1.7,0.6,2.7,0.6c0.1-0.1,0.2-0.2,0.3-0.3
			C45.4,91,45.2,90.9,45,90.8z"/>
		<path opacity="0.2" fill="#262261" enable-background="new    " d="M44.4,84.6L41.5,85c0,0-0.7,1.4,0,2.8c0.7,0.3,1.9,0.6,2.6,0.8
			c0.3,0.1,1.4,0,1.1-1c0-0.1-0.4-1-1.4-1.3C43.6,85.4,44.4,84.6,44.4,84.6z"/>
		<path fill="#E8B180" d="M45.6,82.7c0,0-3.5,0.1-4.1,1.7c-0.2,0.4,0,1.7,0,2.5c0.2,0.2,2,0.9,2.7,1.4c0.5,0.1,0.7-0.2,0.7-0.2
			s-0.5-1.5-1.4-1.7C42.6,86.2,45.6,82.7,45.6,82.7z"/>
		<path opacity="0.2" fill="#262261" enable-background="new    " d="M46,90.6c0,0-0.6,0.7-1.2,1c-0.4-0.1-0.5-1.1-0.5-1.1
			s-0.8,0.4-1.1,0.1c-0.3-0.3,0-1.3,0-1.3s-0.7,0.6-1,0.3c-0.3-0.3,0.1-0.9,0.1-0.9s-0.7,0.2-0.9-0.1c-0.2-0.3,0.1-1.4,0.1-1.4V85
			l-1.2,2.5l0.2,1.2l1.8,2.5l2.7,0.7L46,90.6z"/>
	</g>
	<g id="D_x24_K_x24_leftFingers">
		<path fill="#E8B180" d="M91.9,91.8c0,0-0.7-0.7-1.3-1.7c-0.3-0.5-0.5-0.8-0.4-1.4c0.5-0.8,1.2-0.1,1.2-0.1s-0.6-0.8-0.3-1.4
			c0.3-0.6,0.9-0.1,0.9-0.1s-0.2-0.6,0.1-1c0.3-0.3,0.9-0.2,0.9-0.2s0-0.5,0.5-0.5c0.3-0.6,3.2,2,3.2,2l-0.2,1.2l-1.8,2.6L91.9,91.8
			z"/>
		
			<linearGradient id="SVGID_7_" gradientUnits="userSpaceOnUse" x1="-510.7622" y1="66.1461" x2="-515.7622" y2="61.5211" gradientTransform="matrix(-1 0 0 -1 -420.2938 152)">
			<stop  offset="0" style="stop-color:#BE1E2D"/>
			<stop  offset="0.9981" style="stop-color:#BE1E2D;stop-opacity:0"/>
		</linearGradient>
		<path opacity="0.55" fill="url(#SVGID_7_)" enable-background="new    " d="M92,90.8c1.2-0.7,2.7-2,3.3-3.4
			c0.3-0.2,0.7-0.3,0.9-0.6l0.1,0.1c0.3,1.2-1.3,3.5-2,3.8c-0.5,0.3-1.7,0.6-2.7,0.6c-0.1-0.1-0.2-0.2-0.3-0.3
			C91.6,91,91.8,90.9,92,90.8z"/>
		<path opacity="0.2" fill="#262261" enable-background="new    " d="M92.6,84.6l2.9,0.5c0,0,0.7,1.4,0,2.8
			c-0.7,0.3-1.9,0.6-2.6,0.8c-0.3,0.1-1.4,0-1.1-1c0-0.1,0.4-1,1.4-1.3C93.4,85.4,92.6,84.6,92.6,84.6z"/>
		<path fill="#E8B180" d="M91.4,82.7c0,0,3.5,0.1,4.1,1.7c0.2,0.4,0,1.7,0,2.5c-0.2,0.2-2,0.9-2.7,1.4c-0.5,0.1-0.7-0.2-0.7-0.2
			s0.5-1.5,1.4-1.7S91.4,82.7,91.4,82.7z"/>
		<path opacity="0.2" fill="#262261" enable-background="new    " d="M91,90.6c0,0,0.6,0.5,1.3,0.8c0.4-0.1,0.4-0.9,0.4-0.9
			s0.8,0.4,1.1,0.1s0-1.3,0-1.3s0.7,0.6,1,0.3s-0.1-0.9-0.1-0.9s0.7,0.2,0.9-0.1c0.2-0.3-0.1-1.4-0.1-1.4l0.1-2.2l1.2,2.5l-0.2,1.2
			l-1.8,2.5l-2.7,0.7L91,90.6z"/>
	</g>
</g>
</svg>
