<?xml version="1.0" encoding="utf-8"?>
<!-- Generator: Adobe Illustrator 22.1.0, SVG Export Plug-In . SVG Version: 6.00 Build 0)  -->
<svg version="1.1" id="Layer_7" xmlns="http://www.w3.org/2000/svg" xmlns:xlink="http://www.w3.org/1999/xlink" x="0px" y="0px"
	 viewBox="0 0 137.1 150.2" enable-background="new 0 0 137.1 150.2" xml:space="preserve">
<g>
	<path fill="#C24948" d="M51.2,118.3c0.4-0.4,1.8-4.4,1.5-9.1c0.5-2.3,1.9-5.6,2.9-7.9c1-2.3,0.2-6.6,2-9c0.4-1.9,1.3-3.5,2-5.3
		c0.7-1.8,1.3-3.6,1.7-5.6c0.4-1.8,1.3-1.5,4.4-10.4c0.5,0.4,1.7,0.4,2.3,0c3.2,8.9,4,8.6,4.4,10.4c0.5,2,1.1,3.8,1.7,5.6
		c0.7,1.8,1.6,3.4,2,5.3c1.7,2.4,0.9,6.6,2,9c1,2.3,2.4,5.6,2.9,7.9c-0.3,5,0.9,8.4,1.5,9.1c1.8,0,6.8,0.2,6.9,0
		c-0.3-1.9-1.7-5.7-3.1-7.4c-0.9-3.9-1-7.9-1.8-13.5c-1.2-4.5-2.4-6.5-2.5-7.6c0-0.5-0.8-2.6-0.7-3.8s0.3-6.2,0.2-8
		c-0.2-2.4-1-4.9-1.5-7.8c-0.4-2-3.1-6.8-3.3-9.4c0,0-0.2-3.7,0.4-7.1s0.9-7.2,1.5-11.3c0,0,5.4-3.3,5.3-5.8s-2.7-3.1-2.7-3.1
		c-0.4,0-0.8-0.1-1.4-0.2C78.3,33,74,32,71.8,31.3l-0.1-2.5c0-1,0.3-1.9,0-3.6h-0.1h-9.2h-0.1c-0.3,1.6,0,2.6,0,3.6l-0.1,2.5
		C59.8,32,55.6,33,54,33.4c-0.6,0.1-1,0.2-1.4,0.2c0,0-2.7,0.6-2.7,3.1s5.3,5.8,5.3,5.8c0.6,4.1,0.9,7.9,1.5,11.3s0.4,7.1,0.4,7.1
		c-0.1,0.6-2.6,5.5-3.3,9.4c-0.6,2.9-0.8,4.8-0.9,7.2c-0.1,1.8-0.5,7.4-0.4,8.6s-0.7,3.3-0.7,3.8c-0.1,1.1-1.3,3.1-2.5,7.6
		c-0.8,5.6-0.9,9.6-1.8,13.5c-1.7,2-2.7,5.1-3.1,7.4C44.5,118.5,51.2,118.3,51.2,118.3z"/>
</g>
<path d="M98.4,118.3c0,17.6-14.3,31.9-31.9,31.9s-31.9-14.3-31.9-31.9H98.4z"/>
<path opacity="0.3" fill="#262261" d="M69.7,33.1c0,0,0.9-2.1,2-3.4l0.2-2.3c0-1,0-2-0.3-3.6h-0.1h-9.2h-0.1
	c-0.3,1.6-0.3,2.6-0.3,3.6l0.2,1.9c1.3,1.3,2.5,3.8,2.5,3.8s1.4,1.3,2.6,1.3C68.4,34.4,69.4,33.5,69.7,33.1z"/>
<path fill="#242F47" d="M66.9,29.1"/>
<g>
	<path fill="#C24948" d="M95.3,56.2c0.8,2.2,2.5,6.8,3.6,9.6c0.2,0.6-1.8,1.8-2.7,2c-0.3-0.4-0.5-0.8-0.8-1.1
		c-8.5-10.1-8.8-11.8-9.2-12.4c-0.7-1-1.3-2.7-2.1-4.6c-0.4-1-2.4-2.6-3.3-4.3c-0.7-1.5-2-3-2-3s0.1-9.3,2.6-8.9
		c4.3,0,4.8,6.2,4.5,7.6c0.8,1,2.2,4.3,2.9,6.1c1.2,3.1,2.1,3.4,2.7,3.7C92.5,51.4,95.2,56.2,95.3,56.2z"/>
	<path opacity="0.3" fill="#262261" d="M86.1,51.5c0,0,1.2,1.1,2.4,0.7C87.9,52.9,86.9,54,86.1,51.5z"/>
</g>
<path fill="#C24948" d="M97.4,66.6c1.8-1.2,3.8,0,3.8,0l2.8,4.7l-5.5,3.4c0,0-2.3-4.7-2.8-5.7c-0.2-1.1,0-1.1,0-1.1
	S95.7,67.7,97.4,66.6z"/>
<path opacity="0.3" fill="#262261" d="M98.5,68.7l1.3-0.3l3,2.9l-4.6,2.8l-1.9-3.9c0,0-0.6-1.1-0.5-1.6c0.4,1,1.3,1,1.9,0.5
	C98.5,68.6,98.5,68.7,98.5,68.7z"/>
<path fill="#C24948" d="M76,19.7c0-0.2-1.1-0.9-1.6,0.7c-0.7-3.1-1.5-6-1.5-6c-0.5-0.9-3.2-2.4-5.8-2.4s-5.3,1.5-5.8,2.4
	c0,0-1,3.2-1.7,6.4c-0.4-2-1.6-1.2-1.7-1c-0.2,0.9-0.4,1.2,0.2,3.8c0.2,0.5,0.5,0.5,0.8,0.4c-0.2,1.4,0.7,2.5,0.9,3
	c1.6,1.3,5.3,4,5.3,4h3.8c0,0,3.8-2.7,5.4-4c0.2-0.5,1.1-1.6,0.9-3c0.3,0.1,0.6,0,0.7-0.4C76.4,21,76.2,20.6,76,19.7z"/>
<g>
	<linearGradient id="SVGID_1_" gradientUnits="userSpaceOnUse" x1="66.9233" y1="24.528" x2="66.9233" y2="20.7831">
		<stop  offset="0" style="stop-color:#F05A22"/>
		<stop  offset="0.14" style="stop-color:#EC4A23;stop-opacity:0.86"/>
		<stop  offset="0.3324" style="stop-color:#E93C24;stop-opacity:0.6676"/>
		<stop  offset="0.572" style="stop-color:#E73425;stop-opacity:0.428"/>
		<stop  offset="1" style="stop-color:#E63225;stop-opacity:0"/>
	</linearGradient>
	<path fill="url(#SVGID_1_)" d="M65.6,23L65.6,23c-0.1,0.5,0,1,0.3,1.3l0.2,0.3c0.4,0.4,1.1,0.5,1.6,0l0.1-0.1
		c0.4-0.4,0.5-1,0.3-1.5l0-0.1C67.7,21.7,66,21.7,65.6,23z"/>
	<ellipse opacity="0.66" fill="#FFFFFF" cx="66.6" cy="24.2" rx="0.3" ry="0.3"/>
	<path opacity="0.23" fill="#262261" d="M65.4,24c0,0,0.6-0.2,0.7,0c0.2,0.2,0.3,0.7,0.5,0.8c0.2,0.1,0.5,0.1,0.6,0
		c0.1-0.1,0.3-0.6,0.4-0.8c0.1-0.2,0.9,0,0.9,0l-1.1,1.5h-0.8L65.4,24z"/>
</g>
<path fill="#472222" d="M64.3,26.4c0,0,1.1,0.3,2.5,0.3c1.4,0,2.7-0.3,2.7-0.3s-1.5,0.7-2.7,0.7C65.7,27.1,64.3,26.4,64.3,26.4z"/>
<g>
	<g>
		<path fill-rule="evenodd" clip-rule="evenodd" fill="#E2B729" d="M64.5,21.2c-0.7,0.2-0.6,0.3-1,0.2c-0.4-0.1-0.7-0.7-0.7-0.7
			s0.4-0.6,0.9-0.5C64.1,20.3,64.5,20.9,64.5,21.2z"/>
	</g>
	<g>
		<path fill-rule="evenodd" clip-rule="evenodd" fill="#E2B729" d="M69.4,21.2c0.7,0.2,0.6,0.3,1,0.2c0.4-0.1,0.7-0.7,0.7-0.7
			s-0.4-0.6-0.9-0.5C69.8,20.3,69.3,20.9,69.4,21.2z"/>
	</g>
</g>
<path opacity="0.2" fill="#262261" d="M87.3,50.2c0,0-2.7,0-3.9-2.1c-1.2-2.1-1.8-3.6-2.3-5.1c-0.5-1.5,0-3,0-3l-1.9,0.9l-0.8-2.6
	l0.2,3l-0.9-1.7c0,0-0.2,2.6-0.2,5.4C75.3,47.7,78,53,78,53l0.6,2.1l0.9-10l1.3,1.4l2.9,4.5l3.2,5.6l2.6,3.3v-0.7
	c0,0-3.5-5.6-3.6-7.2S87.3,50.2,87.3,50.2z"/>
<polygon opacity="0.2" fill="#262261" points="93.9,55.8 93.2,55.8 93.9,57.6 95.1,58.8 "/>
<g>
	<path opacity="0.3" fill="#262261" d="M34.8,56.6c0.3,0.4,0.5,1.3,3.2,5v-0.1c0,0-3.5-5.6-3.6-7.2c0-1.6,1.5-1.8,1.5-1.8"/>
	<path opacity="0.3" fill="#262261" d="M29.8,45.3c-0.5-1.5,0-3,0-3l-1.9,0.9l-0.8-2.6l0.2,3l-0.9-1.7c0,0-0.2,2.6-0.2,5.4
		c-1.6,2-0.7,5.3-0.1,7c0.4-2.9,0.7-6.1,1.2-9.5c0,0,0.1,0,0.2-0.1c0,0,0,0.1,0,0.1s1.3,1.5,2,3"/>
	<path opacity="0.2" fill="#262261" d="M32.2,53.3l3.2,5.6l2.6,3.3v-0.6v-0.1c0,0-3.5-5.6-3.6-7.2c0-1.6,1.5-1.8,1.5-1.8"/>
	<path opacity="0.2" fill="#262261" d="M29.8,45.3c-0.5-1.5,0-3,0-3l-1.9,0.9l-0.8-2.6l0.2,3l-0.9-1.7c0,0-0.2,2.6-0.2,5.4
		c-1.6,2-0.7,5.3-0.1,7c0.3,0.7,0.5,1.1,0.5,1.1l0.6,2.1l0.9-10l1.3,1.4"/>
</g>
<path opacity="0.3" fill="#262261" d="M66.3,36.9c0,0,0.5,0.3,0.8,0.3c0.3,0,0.8-0.3,0.8-0.3L67,38.1L66.3,36.9z"/>
<g>
	<path fill="#C24948" d="M98.4,74.6c0,0-0.8-0.8-1.3-1.9c-0.3-0.5-0.5-0.9-0.3-1.5c0.6-0.8,1.2,0,1.2,0s-0.6-0.9-0.2-1.4
		c0.3-0.5,0.9-0.1,0.9-0.1s-0.2-0.7,0.2-1s0.9-0.1,0.9-0.1s0-0.5,0.5-0.5c0.3-0.6,3.6,3,3.6,3l-1.2,1.9l-1.5,0.9L98.4,74.6z"/>
	<path opacity="0.3" fill="#262261" d="M100.5,68.1l1.9,0.5l0.2,0.4c0,0-0.2,0.8-0.4,1.8c-0.7,0.3-2,0.5-2.7,0.7
		c-0.3,0.1-1.4,0-1.1-1.1c0-0.2,0.4-0.4,0.5-0.6c-0.1-0.7,0.5-0.8,0.8-1.1c0-0.1,0-0.3,0.2-0.4C100,68.2,100.5,68.1,100.5,68.1
		L100.5,68.1z"/>
	<path opacity="0.3" fill="#262261" d="M98.4,74.6c0,0,0.2-0.3,0.7-0.3c0.4-0.1,0.4-0.6,0.4-0.6s0.5,0,0.8-0.2
		c0.3-0.3,0.4-0.7,0.4-0.7s0.3,0,0.6-0.2c0.3-0.3,0.4-0.6,0.4-0.6s0.6-0.1,0.8-0.4c0.2-0.3,0.5-0.6,0.5-0.6l-0.4-1.3l1.4,1.7
		l-1.2,1.9l-1.5,0.9L98.4,74.6z"/>
	<path fill="#C24948" d="M100.4,66.2c0,0,1.1,0.2,1.9,1.1c0.3,0.3-0.2,2.3-0.2,3.1c-0.2,0.2-2,0.3-2.7,0.8c-0.5,0.1-0.6-0.3-0.6-0.3
		s0.6-1.4,1.4-1.6c0.2,0,0.3-0.6,0.5-1.2c-0.3-0.3-1.9,1.8-2.7-0.8C97.8,66.6,100.4,66.2,100.4,66.2z"/>
</g>
</svg>
